<svg width="274" height="43" fill="none" xmlns="http://www.w3.org/2000/svg"><rect width="274" height="43" rx="20" fill="#06791F" fill-opacity=".47"/><path d="M51.191 30V14.766h6.875v3.32h-3.379v2.764h3.243v3.232h-3.242V30H51.19zm8.243 0V14.766h6.875v3.32h-3.38v2.52h3.243v3.232H62.93v2.812h3.603V30h-7.1zm12.324.156c-1.57 0-2.702-.39-3.399-1.172-.69-.78-1.035-2.024-1.035-3.73v-.557h3.399v1.026c0 .397.058.71.175.937.124.221.336.332.635.332.313 0 .528-.081.645-.244.123-.17.185-.413.185-.732 0-.424-.143-.782-.43-1.075-.28-.293-.745-.69-1.396-1.191l-1.484-1.152c-.632-.489-1.078-1.029-1.338-1.621-.26-.593-.39-1.312-.39-2.159 0-1.321.338-2.353 1.015-3.095.683-.743 1.67-1.114 2.959-1.114 1.575 0 2.692.41 3.35 1.23.663.821.995 2.026.995 3.614h-3.486v-.84c0-.56-.26-.84-.781-.84-.26 0-.453.079-.576.235-.124.15-.186.345-.186.586 0 .24.056.468.166.683.117.209.384.482.801.82l1.983 1.612c.722.586 1.269 1.201 1.64 1.846.371.644.557 1.48.557 2.51 0 .716-.13 1.386-.39 2.011a3.234 3.234 0 01-1.26 1.514c-.587.377-1.371.566-2.354.566zm6.63-.156V18.066h-2.04v-3.3h7.52v3.3h-2.042V30H78.39zm6.28 0V14.766h3.32V30h-3.32zm6.172 0l-2.022-15.234h3.272l1.26 11.699 1.123-11.7h3.271L95.723 30H90.84zm7.129 0l1.66-15.234h5.83L107.09 30h-3.252l-.225-2.773h-2.109L101.309 30h-3.34zm4.453-12.5l-.635 6.982h1.504l-.713-6.982h-.156zm5.723 12.5V14.766h3.437V27.07h3.535V30h-6.972zm12.636 0V14.766h6.875v3.32h-3.379v2.52h3.243v3.232h-3.243v2.812h3.604V30h-7.1zm12.246.156c-1.243 0-2.246-.387-3.007-1.162-.756-.775-1.133-1.859-1.133-3.252v-5.976c0-1.667.328-2.943.986-3.828.664-.886 1.742-1.329 3.232-1.329.814 0 1.537.15 2.168.45.638.3 1.14.748 1.504 1.347.365.593.547 1.341.547 2.246v2.735h-3.418v-2.403c0-.514-.065-.859-.195-1.035-.13-.182-.332-.273-.606-.273-.319 0-.533.117-.644.351-.111.228-.166.534-.166.918v6.846c0 .475.068.81.205 1.006a.706.706 0 00.605.293c.293 0 .499-.12.616-.361.123-.241.185-.554.185-.938v-2.217h3.457v2.276c0 1.51-.381 2.607-1.142 3.29-.762.678-1.826 1.016-3.194 1.016zm9.59 0c-1.406 0-2.464-.423-3.174-1.27-.709-.852-1.064-2.044-1.064-3.573v-6.211c0-1.478.361-2.595 1.084-3.35.729-.762 1.78-1.143 3.154-1.143 1.38 0 2.432.381 3.154 1.143.723.755 1.084 1.872 1.084 3.35v6.21c0 1.53-.354 2.722-1.064 3.575-.71.846-1.768 1.27-3.174 1.27zm.029-3.066c.326 0 .538-.147.635-.44.098-.3.147-.657.147-1.074v-6.63c0-.307-.043-.593-.127-.86-.085-.273-.296-.41-.635-.41-.332 0-.56.127-.684.38-.117.248-.175.554-.175.919v6.62c0 .45.052.811.156 1.085.104.273.332.41.683.41zm5.42-2.06v-2.266h5.039v2.265h-5.039zm6.407 4.97V14.766h5.175c.879 0 1.55.185 2.012.556.469.371.788.882.957 1.534.169.644.254 1.383.254 2.216 0 1.048-.143 1.879-.43 2.49a2.342 2.342 0 01-1.386 1.26c.579.091.989.352 1.23.782.248.43.371.996.371 1.699V30h-3.408v-4.922c0-.501-.104-.81-.312-.928-.202-.123-.531-.185-.987-.185V30h-3.476zm3.496-9.014h.83c.475 0 .713-.508.713-1.523 0-.612-.052-1.016-.157-1.211-.104-.202-.299-.303-.585-.303h-.801v3.037zM164.004 30V14.766h6.875v3.32H167.5v2.52h3.242v3.232H167.5v2.812h3.604V30h-7.1zm12.324.156c-1.569 0-2.702-.39-3.398-1.172-.69-.78-1.035-2.024-1.035-3.73v-.557h3.398v1.026c0 .397.059.71.176.937.123.221.335.332.635.332.312 0 .527-.081.644-.244.124-.17.186-.413.186-.732a1.48 1.48 0 00-.43-1.075c-.28-.293-.746-.69-1.397-1.191l-1.484-1.152c-.631-.489-1.077-1.029-1.338-1.621-.26-.593-.39-1.312-.39-2.159 0-1.321.338-2.353 1.015-3.095.684-.743 1.67-1.114 2.959-1.114 1.576 0 2.692.41 3.35 1.23.664.821.996 2.026.996 3.614h-3.486v-.84c0-.56-.261-.84-.782-.84-.26 0-.452.079-.576.235-.124.15-.185.345-.185.586 0 .24.055.468.166.683.117.209.384.482.8.82l1.983 1.612c.722.586 1.269 1.201 1.64 1.846.371.644.557 1.48.557 2.51 0 .716-.13 1.386-.391 2.011a3.227 3.227 0 01-1.259 1.514c-.586.377-1.371.566-2.354.566zm5.156-.156V14.766h4.346c.951 0 1.719.208 2.305.625.592.416 1.025.999 1.299 1.748.273.742.41 1.614.41 2.617 0 .963-.117 1.813-.352 2.549-.234.735-.628 1.311-1.181 1.728-.547.417-1.296.625-2.247.625h-1.201V30h-3.379zm3.379-8.428h.196c.638 0 1.028-.169 1.171-.508.144-.338.215-.794.215-1.367 0-.527-.071-.957-.215-1.289-.136-.338-.465-.508-.986-.508h-.381v3.672zm10.176 8.584c-1.406 0-2.464-.423-3.174-1.27-.709-.852-1.064-2.044-1.064-3.573v-6.211c0-1.478.361-2.595 1.084-3.35.729-.762 1.78-1.143 3.154-1.143 1.38 0 2.432.381 3.154 1.143.723.755 1.084 1.872 1.084 3.35v6.21c0 1.53-.354 2.722-1.064 3.575-.71.846-1.768 1.27-3.174 1.27zm.029-3.066c.326 0 .537-.147.635-.44.098-.3.147-.657.147-1.074v-6.63c0-.307-.043-.593-.127-.86-.085-.273-.297-.41-.635-.41-.332 0-.56.127-.684.38-.117.248-.175.554-.175.919v6.62c0 .45.052.811.156 1.085.104.273.332.41.683.41zm5.596 2.91V14.766h3.535l1.778 8.261v-8.261h3.125V30h-3.36l-1.914-8.252V30h-3.164zm14.043.156c-1.569 0-2.702-.39-3.398-1.172-.691-.78-1.036-2.024-1.036-3.73v-.557h3.399v1.026c0 .397.058.71.176.937.123.221.335.332.634.332.313 0 .528-.081.645-.244.124-.17.185-.413.185-.732a1.48 1.48 0 00-.429-1.075c-.28-.293-.746-.69-1.397-1.191l-1.484-1.152c-.632-.489-1.078-1.029-1.338-1.621-.26-.593-.391-1.312-.391-2.159 0-1.321.339-2.353 1.016-3.095.684-.743 1.67-1.114 2.959-1.114 1.576 0 2.692.41 3.35 1.23.664.821.996 2.026.996 3.614h-3.487v-.84c0-.56-.26-.84-.781-.84-.26 0-.452.079-.576.235-.124.15-.186.345-.186.586 0 .24.056.468.166.683.118.209.385.482.801.82l1.983 1.612c.722.586 1.269 1.201 1.64 1.846.371.644.557 1.48.557 2.51 0 .716-.13 1.386-.391 2.011a3.239 3.239 0 01-1.259 1.514c-.586.377-1.371.566-2.354.566zm4.688-.156l1.66-15.234h5.83L228.516 30h-3.252l-.225-2.773h-2.109L222.734 30h-3.339zm4.453-12.5l-.635 6.982h1.504l-.713-6.982h-.156zM229.57 30V14.766h4.659c1.25 0 2.158.306 2.724.918.573.605.859 1.608.859 3.007v.332c0 .808-.146 1.462-.439 1.963-.286.502-.726.83-1.318.987.514.13.911.377 1.191.742.287.358.485.797.596 1.318.11.521.166 1.087.166 1.7 0 .514-.059 1.025-.176 1.533-.111.5-.306.96-.586 1.377-.273.41-.657.738-1.152.986-.489.247-1.11.371-1.865.371h-4.659zm3.36-9.248h.703c.319 0 .524-.124.615-.371a2.58 2.58 0 00.137-.889v-1.045c0-.553-.244-.83-.733-.83h-.722v3.135zm.341 6.416c.892 0 1.338-.423 1.338-1.27v-.878c0-.489-.074-.873-.224-1.153-.143-.286-.417-.43-.821-.43h-.634v3.711c.052.007.107.014.166.02h.175zm5.87 2.832V14.766h3.437V27.07h3.535V30h-6.972zm7.949 0V14.766h6.875v3.32h-3.379v2.52h3.242v3.232h-3.242v2.812h3.603V30h-7.099z" fill="#00C22A"/><circle cx="27.5" cy="21.5" r="7.5" fill="#00C22A"/></svg>