<svg width="278" height="34" fill="none" xmlns="http://www.w3.org/2000/svg"><rect x=".5" y=".5" width="277" height="33" rx="9.5" fill="#01123E" stroke="#00C22A"/><path d="M34.142 11.952v-.656h7.967l.112 2.832h-.911l-.352-2.032h-3.76l-.032 2.048v2.016h2.352l.224-1.52h.736v3.776h-.736l-.209-1.504h-2.367v2.256c.01.693.02 1.37.032 2.032h4.08l.352-2.048h.911L42.43 22h-8.288v-.656l1.471-.176c.022-.672.032-1.355.032-2.048v-4.928c0-.693-.01-1.381-.032-2.064l-1.471-.176zM43.718 22v-.576l1.184-.224c.01-.405.016-.843.016-1.312.01-.47.016-.885.016-1.248v-.768c0-.437-.005-.8-.016-1.088 0-.288-.01-.592-.032-.912l-1.264-.144v-.56l2.24-.976.24.16.128 1.28a4.963 4.963 0 011.36-1.04c.512-.267 1.013-.4 1.504-.4.694 0 1.206.235 1.536.704.341.459.512 1.21.512 2.256V19.888c.01.47.021.907.032 1.312l1.12.224V22h-3.712v-.576l1.184-.224c.01-.395.016-.827.016-1.296.01-.48.016-.901.016-1.264v-1.36c0-.736-.107-1.243-.32-1.52-.203-.277-.538-.416-1.008-.416a2.61 2.61 0 00-1.056.224c-.341.15-.715.395-1.12.736V19.888c.01.47.022.907.032 1.312l1.104.224V22h-3.712zm15.998.208c-.448 0-.859-.053-1.232-.16a5.565 5.565 0 01-1.152-.448l-.064-1.76h.88l.304 1.392c.373.17.805.256 1.296.256.608 0 1.056-.112 1.344-.336a1.05 1.05 0 00.448-.88c0-.341-.123-.613-.368-.816-.246-.213-.619-.405-1.12-.576l-.736-.272c-.587-.213-1.056-.49-1.408-.832-.352-.341-.528-.784-.528-1.328 0-.395.106-.763.32-1.104.213-.341.528-.619.944-.832.416-.213.922-.32 1.52-.32.437 0 .832.059 1.184.176.362.107.714.267 1.056.48l-.064 1.632h-.832l-.256-1.28a2.445 2.445 0 00-1.104-.272c-.491 0-.864.101-1.12.304a.942.942 0 00-.368.784c0 .352.106.619.32.8.224.181.608.373 1.152.576l.496.176c.8.299 1.365.64 1.696 1.024.341.384.512.827.512 1.328 0 .405-.118.784-.352 1.136-.235.341-.582.619-1.04.832-.459.213-1.035.32-1.728.32zm10.393-.048c-.384 0-.704-.112-.96-.336-.256-.224-.416-.523-.48-.896-.437.427-.821.747-1.152.96-.33.213-.73.32-1.2.32-.586 0-1.093-.165-1.52-.496-.416-.341-.624-.843-.624-1.504 0-.31.07-.597.208-.864.15-.267.416-.528.8-.784.384-.256.934-.512 1.648-.768.246-.085.528-.176.848-.272.32-.096.64-.181.96-.256v-.4c0-.779-.117-1.296-.352-1.552-.234-.256-.618-.384-1.152-.384-.117 0-.25.005-.4.016-.139.01-.293.037-.464.08l-.304 1.04c-.15.512-.427.768-.832.768-.448 0-.698-.219-.752-.656.15-.608.501-1.088 1.056-1.44.566-.363 1.254-.544 2.064-.544.843 0 1.467.213 1.872.64.405.416.608 1.13.608 2.144v3.408c0 .341.053.587.16.736a.501.501 0 00.416.208.62.62 0 00.352-.096c.096-.064.187-.15.272-.256l.32.352c-.192.31-.405.528-.64.656a1.596 1.596 0 01-.752.176zm-4.512-2.192c0 .427.123.73.368.912.245.181.55.272.912.272.16 0 .31-.021.448-.064.15-.043.325-.123.528-.24.203-.128.464-.31.784-.544v-2.448c-.277.075-.55.16-.816.256-.266.085-.485.16-.656.224-.459.181-.8.368-1.024.56-.224.192-.373.379-.448.56a1.541 1.541 0 00-.096.512zm10.58-4.944V14.4h3.04v.624l-.88.208-2.592 6.864h-.688l-2.912-6.912-.864-.16V14.4h3.872v.624l-1.408.208 1.952 5.12 1.776-5.104-1.296-.224zm7.254 7.184c-.619 0-1.21-.144-1.776-.432-.555-.299-1.008-.741-1.36-1.328-.352-.597-.528-1.333-.528-2.208 0-.885.176-1.627.528-2.224.352-.608.805-1.061 1.36-1.36a3.65 3.65 0 011.776-.464 3.56 3.56 0 011.76.464c.565.299 1.024.752 1.376 1.36.363.597.544 1.339.544 2.224 0 .875-.181 1.61-.544 2.208a3.496 3.496 0 01-1.376 1.328 3.767 3.767 0 01-1.76.432zm0-.72c.693 0 1.227-.272 1.6-.816.373-.555.56-1.365.56-2.432 0-1.077-.187-1.899-.56-2.464-.374-.565-.907-.848-1.6-.848-.694 0-1.227.283-1.6.848-.363.565-.544 1.387-.544 2.464 0 1.067.181 1.877.544 2.432.373.544.906.816 1.6.816zm4.957.512v-.576l1.2-.224c.01-.405.016-.843.016-1.312.01-.48.016-.896.016-1.248v-.752c0-.437-.005-.8-.016-1.088 0-.299-.01-.608-.032-.928l-1.28-.144v-.56l2.464-.976.24.16-.048 2.176V19.888c.01.47.022.907.032 1.312l1.12.224V22h-3.712zm1.888-9.568c-.298 0-.554-.096-.768-.288a.97.97 0 01-.304-.736c0-.31.102-.555.304-.736.214-.192.47-.288.768-.288.299 0 .55.096.752.288.213.181.32.427.32.736a.946.946 0 01-.32.736 1.051 1.051 0 01-.752.288zM93.266 22v-.576l1.152-.208c.01-.405.016-.843.016-1.312.01-.48.016-.901.016-1.264v-.768c0-.437-.006-.8-.016-1.088 0-.288-.01-.592-.032-.912l-1.264-.144v-.56l2.24-.976.24.16.176 1.888c.266-.64.608-1.141 1.024-1.504.426-.363.853-.544 1.28-.544.245 0 .474.053.688.16.213.107.368.25.464.432 0 .779-.315 1.168-.944 1.168-.182 0-.352-.032-.512-.096a2.041 2.041 0 01-.464-.304l-.192-.176c-.32.235-.587.523-.8.864-.214.341-.39.741-.528 1.2v2.432c.01.47.021.907.032 1.312l1.312.24V22h-3.888zm10.388 3.824v-.56l1.28-.224c.01-.437.016-.875.016-1.312.01-.427.016-.853.016-1.28v-4.576c0-.437-.006-.8-.016-1.088 0-.288-.011-.592-.032-.912l-1.264-.144v-.56l2.24-.976.24.16.096 1.04c.757-.8 1.562-1.2 2.416-1.2.576 0 1.093.16 1.552.48.458.32.821.779 1.088 1.376.277.587.416 1.296.416 2.128 0 .821-.144 1.536-.432 2.144-.288.597-.683 1.061-1.184 1.392a2.937 2.937 0 01-1.68.496c-.363 0-.726-.075-1.088-.224-.352-.15-.699-.421-1.04-.816v2.544l.032 1.312 1.456.24v.56h-4.112zm4.608-10.72c-.246 0-.528.064-.848.192-.32.117-.683.347-1.088.688v4.496c.298.288.592.496.88.624.288.128.581.192.88.192.597 0 1.109-.24 1.536-.72.426-.48.64-1.237.64-2.272 0-1.024-.187-1.813-.56-2.368-.374-.555-.854-.832-1.44-.832zM112.666 22v-.576l1.28-.224c.01-.437.016-.864.016-1.28.01-.427.016-.853.016-1.28v-7.024l-1.312-.16v-.56l2.496-.72.224.128-.064 2.272v7.344l.032 1.28 1.28.224V22h-3.968zm7.777.208c-.651 0-1.163-.213-1.536-.64-.373-.437-.555-1.184-.544-2.24l.048-3.984-1.136-.24v-.576l2.352-.224.16.16-.08 2.24v2.48c0 .693.107 1.184.32 1.472.213.277.533.416.96.416.747 0 1.493-.347 2.24-1.04l.048-4.704-1.136-.224v-.576l2.32-.224.16.16-.048 2.24V21.2l1.088.224V22l-2.224.128-.16-1.424c-.427.523-.885.907-1.376 1.152-.48.235-.965.352-1.456.352zm8.96 0c-.448 0-.859-.053-1.232-.16a5.578 5.578 0 01-1.152-.448l-.064-1.76h.88l.304 1.392c.373.17.805.256 1.296.256.608 0 1.056-.112 1.344-.336.299-.224.448-.517.448-.88 0-.341-.123-.613-.368-.816-.245-.213-.619-.405-1.12-.576l-.736-.272c-.587-.213-1.056-.49-1.408-.832-.352-.341-.528-.784-.528-1.328 0-.395.107-.763.32-1.104.213-.341.528-.619.944-.832.416-.213.923-.32 1.52-.32.437 0 .832.059 1.184.176.363.107.715.267 1.056.48l-.064 1.632h-.832l-.256-1.28a2.447 2.447 0 00-1.104-.272c-.491 0-.864.101-1.12.304a.943.943 0 00-.368.784c0 .352.107.619.32.8.224.181.608.373 1.152.576l.496.176c.8.299 1.365.64 1.696 1.024.341.384.512.827.512 1.328 0 .405-.117.784-.352 1.136-.235.341-.581.619-1.04.832-.459.213-1.035.32-1.728.32zm10.672 0c-.448 0-.859-.053-1.232-.16a5.578 5.578 0 01-1.152-.448l-.064-1.76h.88l.304 1.392c.373.17.805.256 1.296.256.608 0 1.056-.112 1.344-.336.299-.224.448-.517.448-.88 0-.341-.123-.613-.368-.816-.245-.213-.619-.405-1.12-.576l-.736-.272c-.587-.213-1.056-.49-1.408-.832-.352-.341-.528-.784-.528-1.328 0-.395.107-.763.32-1.104.213-.341.528-.619.944-.832.416-.213.923-.32 1.52-.32.437 0 .832.059 1.184.176.363.107.715.267 1.056.48l-.064 1.632h-.832l-.256-1.28a2.447 2.447 0 00-1.104-.272c-.491 0-.864.101-1.12.304a.943.943 0 00-.368.784c0 .352.107.619.32.8.224.181.608.373 1.152.576l.496.176c.8.299 1.365.64 1.696 1.024.341.384.512.827.512 1.328 0 .405-.117.784-.352 1.136-.235.341-.581.619-1.04.832-.459.213-1.035.32-1.728.32zm7.306 0c-.651 0-1.163-.213-1.536-.64-.374-.437-.555-1.184-.544-2.24l.048-3.984-1.136-.24v-.576l2.352-.224.16.16-.08 2.24v2.48c0 .693.106 1.184.32 1.472.213.277.533.416.959.416.747 0 1.494-.347 2.241-1.04l.048-4.704-1.136-.224v-.576l2.32-.224.16.16-.048 2.24V21.2l1.088.224V22l-2.224.128-.16-1.424c-.427.523-.886.907-1.376 1.152-.48.235-.966.352-1.456.352zm6.432-.208v-.576l1.152-.208c.01-.405.016-.843.016-1.312.01-.48.016-.901.016-1.264v-.768c0-.437-.006-.8-.016-1.088 0-.288-.011-.592-.032-.912l-1.264-.144v-.56l2.24-.976.24.16.176 1.888c.266-.64.608-1.141 1.024-1.504.426-.363.853-.544 1.28-.544.245 0 .474.053.688.16.213.107.368.25.464.432 0 .779-.315 1.168-.944 1.168-.182 0-.352-.032-.512-.096a2.035 2.035 0 01-.464-.304l-.192-.176a3.09 3.09 0 00-.8.864c-.214.341-.39.741-.528 1.2v2.432c.01.47.021.907.032 1.312l1.312.24V22h-3.888zm10.468 0v-.576l1.184-.224c.01-.405.016-.843.016-1.312.01-.47.016-.885.016-1.248v-.768c0-.437-.006-.8-.016-1.088 0-.288-.011-.592-.032-.912l-1.264-.144v-.56l2.24-.976.24.16.128 1.28a4.953 4.953 0 011.36-1.04c.512-.267 1.013-.4 1.504-.4.693 0 1.205.235 1.536.704.341.459.512 1.21.512 2.256V19.888c.01.47.021.907.032 1.312l1.12.224V22h-3.712v-.576l1.184-.224c.01-.395.016-.827.016-1.296.01-.48.016-.901.016-1.264v-1.36c0-.736-.107-1.243-.32-1.52-.203-.277-.539-.416-1.008-.416-.363 0-.715.075-1.056.224-.342.15-.715.395-1.12.736V19.888c.01.47.021.907.032 1.312l1.104.224V22h-3.712zm13.447.208a3.86 3.86 0 01-1.776-.432c-.555-.299-1.008-.741-1.36-1.328-.352-.597-.528-1.333-.528-2.208 0-.885.176-1.627.528-2.224.352-.608.805-1.061 1.36-1.36a3.648 3.648 0 011.776-.464c.618 0 1.205.155 1.76.464.565.299 1.024.752 1.376 1.36.362.597.544 1.339.544 2.224 0 .875-.182 1.61-.544 2.208a3.498 3.498 0 01-1.376 1.328 3.77 3.77 0 01-1.76.432zm0-.72c.693 0 1.226-.272 1.6-.816.373-.555.56-1.365.56-2.432 0-1.077-.187-1.899-.56-2.464-.374-.565-.907-.848-1.6-.848-.694 0-1.227.283-1.6.848-.363.565-.544 1.387-.544 2.464 0 1.067.181 1.877.544 2.432.373.544.906.816 1.6.816zm7.597.72c-.448 0-.859-.053-1.232-.16a5.578 5.578 0 01-1.152-.448l-.064-1.76h.88l.304 1.392c.373.17.805.256 1.296.256.608 0 1.056-.112 1.344-.336.299-.224.448-.517.448-.88 0-.341-.123-.613-.368-.816-.245-.213-.619-.405-1.12-.576l-.736-.272c-.587-.213-1.056-.49-1.408-.832-.352-.341-.528-.784-.528-1.328 0-.395.107-.763.32-1.104.213-.341.528-.619.944-.832.416-.213.923-.32 1.52-.32.437 0 .832.059 1.184.176.363.107.715.267 1.056.48l-.064 1.632h-.832l-.256-1.28a2.447 2.447 0 00-1.104-.272c-.491 0-.864.101-1.12.304a.943.943 0 00-.368.784c0 .352.107.619.32.8.224.181.608.373 1.152.576l.496.176c.8.299 1.365.64 1.696 1.024.341.384.512.827.512 1.328 0 .405-.117.784-.352 1.136-.235.341-.581.619-1.04.832-.459.213-1.035.32-1.728.32zm12.368-7.184V14.4h3.04v.624l-.88.208-2.592 6.864h-.688l-2.912-6.912-.864-.16V14.4h3.872v.624l-1.408.208 1.952 5.12 1.776-5.104-1.296-.224zm9.588 7.136c-.384 0-.704-.112-.96-.336-.256-.224-.416-.523-.48-.896-.437.427-.821.747-1.152.96-.331.213-.731.32-1.2.32-.587 0-1.093-.165-1.52-.496-.416-.341-.624-.843-.624-1.504 0-.31.069-.597.208-.864.149-.267.416-.528.8-.784.384-.256.933-.512 1.648-.768.245-.085.528-.176.848-.272.32-.096.64-.181.96-.256v-.4c0-.779-.117-1.296-.352-1.552s-.619-.384-1.152-.384c-.117 0-.251.005-.4.016-.139.01-.293.037-.464.08l-.304 1.04c-.149.512-.427.768-.832.768-.448 0-.699-.219-.752-.656.149-.608.501-1.088 1.056-1.44.565-.363 1.253-.544 2.064-.544.843 0 1.467.213 1.872.64.405.416.608 1.13.608 2.144v3.408c0 .341.053.587.16.736a.5.5 0 00.416.208.62.62 0 00.352-.096c.096-.064.187-.15.272-.256l.32.352c-.192.31-.405.528-.64.656a1.597 1.597 0 01-.752.176zm-4.512-2.192c0 .427.123.73.368.912.245.181.549.272.912.272.16 0 .309-.021.448-.064.149-.043.325-.123.528-.24.203-.128.464-.31.784-.544v-2.448c-.277.075-.549.16-.816.256-.267.085-.485.16-.656.224-.459.181-.8.368-1.024.56-.224.192-.373.379-.448.56a1.541 1.541 0 00-.096.512zM209.166 22v-.576l1.28-.224c.01-.437.016-.864.016-1.28.01-.427.016-.853.016-1.28v-7.024l-1.312-.16v-.56l2.496-.72.224.128-.064 2.272v7.344l.032 1.28 1.28.224V22h-3.968zm8.669-7.072c-.298 0-.602.085-.912.256-.298.17-.56.443-.784.816-.213.373-.352.87-.416 1.488h2.912c.384 0 .635-.08.752-.24a.918.918 0 00.192-.592c0-.31-.08-.592-.24-.848a1.705 1.705 0 00-.624-.64 1.625 1.625 0 00-.88-.24zm-.016 7.28c-1.077 0-1.941-.347-2.592-1.04-.65-.704-.976-1.67-.976-2.896 0-.821.166-1.536.496-2.144a3.852 3.852 0 011.344-1.424 3.499 3.499 0 011.84-.512c.555 0 1.056.123 1.504.368a2.75 2.75 0 011.072 1.056c.267.448.4.997.4 1.648 0 .181-.01.352-.032.512-.021.15-.048.277-.08.384h-5.104c.022.981.267 1.728.736 2.24.47.512 1.088.768 1.856.768.512 0 .939-.101 1.28-.304.342-.213.656-.485.944-.816l.384.304a3.65 3.65 0 01-1.216 1.36c-.512.33-1.13.496-1.856.496zm7.437 0c-.651 0-1.163-.213-1.536-.64-.374-.437-.555-1.184-.544-2.24l.048-3.984-1.136-.24v-.576l2.352-.224.16.16-.08 2.24v2.48c0 .693.106 1.184.32 1.472.213.277.533.416.959.416.747 0 1.494-.347 2.241-1.04l.048-4.704-1.136-.224v-.576l2.32-.224.16.16-.048 2.24V21.2l1.088.224V22l-2.224.128-.16-1.424c-.427.523-.886.907-1.376 1.152-.48.235-.966.352-1.456.352zm6.432-.208v-.576l1.152-.208c.01-.405.016-.843.016-1.312.01-.48.016-.901.016-1.264v-.768c0-.437-.006-.8-.016-1.088 0-.288-.011-.592-.032-.912l-1.264-.144v-.56l2.24-.976.24.16.176 1.888c.266-.64.608-1.141 1.024-1.504.426-.363.853-.544 1.28-.544.245 0 .474.053.688.16.213.107.368.25.464.432 0 .779-.315 1.168-.944 1.168-.182 0-.352-.032-.512-.096a2.035 2.035 0 01-.464-.304l-.192-.176a3.09 3.09 0 00-.8.864c-.214.341-.39.741-.528 1.2v2.432c.01.47.021.907.032 1.312l1.312.24V22h-3.888zm9.137.208c-.448 0-.859-.053-1.232-.16a5.578 5.578 0 01-1.152-.448l-.064-1.76h.88l.304 1.392c.373.17.805.256 1.296.256.608 0 1.056-.112 1.344-.336.299-.224.448-.517.448-.88 0-.341-.123-.613-.368-.816-.245-.213-.619-.405-1.12-.576l-.736-.272c-.587-.213-1.056-.49-1.408-.832-.352-.341-.528-.784-.528-1.328 0-.395.107-.763.32-1.104.213-.341.528-.619.944-.832.416-.213.923-.32 1.52-.32.437 0 .832.059 1.184.176.363.107.715.267 1.056.48l-.064 1.632h-.832l-.256-1.28a2.447 2.447 0 00-1.104-.272c-.491 0-.864.101-1.12.304a.943.943 0 00-.368.784c0 .352.107.619.32.8.224.181.608.373 1.152.576l.496.176c.8.299 1.365.64 1.696 1.024.341.384.512.827.512 1.328 0 .405-.117.784-.352 1.136-.235.341-.581.619-1.04.832-.459.213-1.035.32-1.728.32z" fill="#00C22A"/></svg>