<svg width="319" height="101" fill="none" xmlns="http://www.w3.org/2000/svg"><rect x="2" width="316" height="101" rx="23" fill="#FFE600"/><path d="M29.719 61V33.5h8.437c1.407 0 2.469.323 3.188.969.718.635 1.198 1.531 1.437 2.687.25 1.146.375 2.495.375 4.047 0 1.5-.192 2.698-.578 3.594-.375.896-1.088 1.516-2.14 1.86.864.176 1.468.609 1.812 1.296.354.677.531 1.557.531 2.64V61H37.36V50.234c0-.802-.166-1.297-.5-1.484-.323-.198-.849-.297-1.578-.297V61H29.72zm5.593-17.313h1.329c.76 0 1.14-.828 1.14-2.484 0-1.073-.083-1.776-.25-2.11-.166-.333-.479-.5-.937-.5h-1.282v5.094zM44.97 61V36.625h11v5.313h-5.407v4.03h5.188v5.173h-5.188v4.5h5.766V61h-11.36zm1.828-25.422v-3.016l7.422-2.624v4.484l-7.422 1.156zm17.89 25.672c-2.51 0-4.322-.625-5.437-1.875-1.104-1.25-1.656-3.24-1.656-5.969v-.89h5.437v1.64c0 .636.094 1.136.282 1.5.197.354.536.532 1.015.532.5 0 .844-.13 1.031-.391.198-.271.297-.662.297-1.172 0-.677-.229-1.25-.687-1.719-.448-.468-1.193-1.104-2.235-1.906l-2.375-1.844c-1.01-.781-1.724-1.646-2.14-2.593-.417-.948-.625-2.1-.625-3.454 0-2.114.541-3.765 1.625-4.953 1.093-1.187 2.672-1.781 4.734-1.781 2.521 0 4.307.656 5.36 1.969 1.062 1.312 1.593 3.24 1.593 5.781h-5.578v-1.344c0-.896-.416-1.343-1.25-1.343-.417 0-.724.124-.922.374-.198.24-.297.553-.297.938 0 .385.089.75.266 1.094.188.333.615.77 1.281 1.312l3.172 2.578c1.156.938 2.031 1.922 2.625 2.953.594 1.032.89 2.37.89 4.016a8.285 8.285 0 01-.624 3.219c-.406 1-1.078 1.807-2.016 2.422-.937.604-2.193.906-3.766.906zm8.25-.25V36.625h11v5.313h-5.406v4.03h5.188v5.173H78.53v4.5h5.766V61h-11.36zm13.188 0V36.625h8.281c1.406 0 2.48.297 3.219.89.75.594 1.26 1.412 1.531 2.454.271 1.031.406 2.213.406 3.547 0 1.677-.229 3.005-.687 3.984-.458.98-1.198 1.651-2.219 2.016.927.145 1.584.562 1.969 1.25.396.687.594 1.593.594 2.718V61h-5.453v-7.875c0-.802-.167-1.297-.5-1.484-.323-.198-.85-.297-1.579-.297V61h-5.562zm5.594-14.422h1.328c.76 0 1.14-.812 1.14-2.437 0-.98-.083-1.625-.25-1.938-.166-.323-.479-.484-.937-.484h-1.281v4.86zM103.75 61l-3.234-24.375h5.234l2.016 18.719 1.796-18.719h5.235L111.562 61h-7.812zm12.656 0V36.625h11v5.313H122v4.03h5.188v5.173H122v4.5h5.766V61h-11.36zm12.469 0v-5l6.297-14.313h-5.688v-5.062h11.485v4.813l-6.407 14.5h6.141V61h-11.828zm23.719 0l-3.235-24.375h5.235l2.015 18.719 1.797-18.719h5.235L160.406 61h-7.812zm19.218.25c-2.25 0-3.942-.677-5.078-2.031-1.135-1.365-1.703-3.271-1.703-5.719v-9.938c0-2.364.578-4.15 1.735-5.359 1.166-1.219 2.849-1.828 5.046-1.828 2.209 0 3.891.61 5.047 1.828 1.157 1.208 1.735 2.995 1.735 5.36V53.5c0 2.448-.568 4.354-1.703 5.719-1.136 1.354-2.829 2.031-5.079 2.031zm.047-4.906c.521 0 .86-.235 1.016-.703.156-.48.234-1.052.234-1.72V43.314c0-.49-.067-.948-.203-1.376-.135-.437-.474-.656-1.015-.656-.532 0-.896.203-1.094.61-.188.395-.281.885-.281 1.468v10.594c0 .719.083 1.297.25 1.734.166.438.531.657 1.093.657zm15.485 4.906c-2.511 0-4.323-.625-5.438-1.875-1.104-1.25-1.656-3.24-1.656-5.969v-.89h5.438v1.64c0 .636.093 1.136.281 1.5.198.354.536.532 1.015.532.5 0 .844-.13 1.032-.391.198-.271.296-.662.296-1.172 0-.677-.229-1.25-.687-1.719-.448-.468-1.193-1.104-2.234-1.906l-2.375-1.844c-1.011-.781-1.724-1.646-2.141-2.593-.417-.948-.625-2.1-.625-3.454 0-2.114.542-3.765 1.625-4.953 1.094-1.187 2.672-1.781 4.734-1.781 2.521 0 4.308.656 5.36 1.969 1.062 1.312 1.593 3.24 1.593 5.781h-5.578v-1.344c0-.896-.416-1.343-1.25-1.343-.416 0-.724.124-.922.374-.197.24-.296.553-.296.938 0 .385.088.75.265 1.094.188.333.615.77 1.281 1.312l3.172 2.578c1.157.938 2.032 1.922 2.625 2.953.594 1.032.891 2.37.891 4.016a8.278 8.278 0 01-.625 3.219c-.406 1-1.078 1.807-2.016 2.422-.937.604-2.192.906-3.765.906zm15.75-.25V36.625h7.453c2 0 3.453.49 4.359 1.469.917.968 1.375 2.573 1.375 4.812v.532c0 1.291-.234 2.338-.703 3.14-.458.802-1.161 1.328-2.109 1.578.823.209 1.458.604 1.906 1.188.458.573.776 1.276.953 2.11.177.832.266 1.739.266 2.718 0 .823-.094 1.64-.282 2.453a6.374 6.374 0 01-.937 2.203c-.437.656-1.052 1.182-1.844 1.578-.781.396-1.776.594-2.984.594h-7.453zm5.375-14.797h1.125c.51 0 .838-.198.984-.594.146-.395.219-.87.219-1.422v-1.671c0-.886-.391-1.328-1.172-1.328h-1.156v5.015zm.547 10.266c1.427 0 2.14-.677 2.14-2.032v-1.406c0-.781-.12-1.396-.359-1.843-.229-.459-.667-.688-1.313-.688h-1.015v5.938l.265.03h.282zm9.14 4.531V36.625h5.313V61h-5.313zm7.5 0V36.625h5.5v19.688h5.656V61h-11.156zm12.719 0V36.625h5.5v19.688h5.656V61h-11.156zm12.719 0V36.625h11v5.313h-5.406v4.03h5.187v5.173h-5.187v4.5h5.765V61h-11.359zm15.547 0V41.906h-3.266v-5.281h12.031v5.281h-3.265V61h-5.5zm16.828.25c-2.511 0-4.323-.625-5.438-1.875-1.104-1.25-1.656-3.24-1.656-5.969v-.89h5.437v1.64c0 .636.094 1.136.282 1.5.198.354.536.532 1.015.532.5 0 .844-.13 1.032-.391.198-.271.297-.662.297-1.172 0-.677-.23-1.25-.688-1.719-.448-.468-1.193-1.104-2.234-1.906l-2.375-1.844c-1.011-.781-1.724-1.646-2.141-2.593-.417-.948-.625-2.1-.625-3.454 0-2.114.542-3.765 1.625-4.953 1.094-1.187 2.672-1.781 4.734-1.781 2.521 0 4.308.656 5.36 1.969 1.062 1.312 1.594 3.24 1.594 5.781h-5.579v-1.344c0-.896-.416-1.343-1.25-1.343-.416 0-.724.124-.921.374-.198.24-.297.553-.297.938 0 .385.088.75.265 1.094.188.333.615.77 1.282 1.312l3.171 2.578c1.157.938 2.032 1.922 2.625 2.953.594 1.032.891 2.37.891 4.016a8.278 8.278 0 01-.625 3.219c-.406 1-1.078 1.807-2.016 2.422-.937.604-2.192.906-3.765.906z" fill="#000"/></svg>