<svg width="162" height="42" fill="none" xmlns="http://www.w3.org/2000/svg"><g filter="url(#a)"><mask id="b" maskUnits="userSpaceOnUse" x="8.243" y="4.825" width="144" height="24" fill="#000"><path fill="#fff" d="M8.243 4.825H152.243V28.825H8.243z"/><path d="M10.2 26.825V6.2h8.25v4.02h-4.102v3.28h3.891v3.973h-3.89v9.352H10.2zm9.586 0V8.544h4.125v14.765h4.242v3.516h-8.367zm11.238 0V20.04L27.731 8.544h4.09l1.148 6.996 1.149-6.996h4.078L34.915 20.04v6.785h-3.89zm8.028 0V8.544h3.984v18.281h-3.984zm5.625 0V8.544h4.242l2.133 9.914V8.544h3.75v18.281H50.77l-2.297-9.902v9.902h-3.796zm16.207.188c-2.946 0-4.418-2.11-4.418-6.329v-6.48c0-3.852 1.687-5.777 5.062-5.777 1.39 0 2.457.253 3.2.761.742.5 1.253 1.219 1.535 2.156.28.938.421 2.067.421 3.387h-4.03v-.937c0-.446-.063-.817-.188-1.114-.118-.304-.368-.457-.75-.457-.477 0-.793.16-.95.48-.148.321-.222.673-.222 1.056v7.582c0 .554.07 1.007.21 1.359.15.344.434.516.856.516.438 0 .727-.172.867-.516.149-.352.223-.813.223-1.383v-1.476h-1.102v-3.563h5.04v10.547h-1.653l-.703-1.734c-.719 1.28-1.851 1.921-3.398 1.921zm14.835-.188V10.161H73.27V6.2h9.024v3.96h-2.45v16.665H75.72zm7.16 0l1.993-18.281h6.996l1.957 18.281h-3.902l-.27-3.328h-2.531l-.234 3.328H82.88zm5.344-15l-.761 8.379h1.804l-.855-8.379h-.188zm6.868 15V8.544h5.214c1.141 0 2.063.25 2.766.75.711.5 1.231 1.199 1.559 2.097.328.891.492 1.938.492 3.141 0 1.156-.141 2.176-.422 3.059-.281.882-.754 1.574-1.418 2.074-.656.5-1.555.75-2.695.75h-1.442v6.41h-4.054zm4.054-10.113h.235c.765 0 1.234-.203 1.406-.61.172-.406.258-.953.258-1.64 0-.633-.086-1.149-.258-1.547-.164-.406-.559-.61-1.184-.61h-.457v4.407zm12.914 10.113V6.2h8.25v4.02h-4.101v3.28h3.89v3.973h-3.89v9.352h-4.149zm9.586 0V8.544h8.25v3.984h-4.054v3.024h3.89v3.878h-3.89v3.375h4.324v4.02h-8.52zm14.789.188c-1.882 0-3.242-.47-4.078-1.407-.828-.937-1.242-2.43-1.242-4.476v-.668h4.078v1.23c0 .477.07.852.211 1.125.149.266.402.399.762.399.375 0 .633-.098.773-.293.149-.203.223-.496.223-.88 0-.507-.172-.937-.516-1.288-.336-.352-.894-.828-1.675-1.43l-1.782-1.383c-.758-.586-1.293-1.234-1.605-1.945-.313-.711-.469-1.574-.469-2.59 0-1.586.406-2.824 1.219-3.715.82-.89 2.004-1.336 3.551-1.336 1.89 0 3.23.492 4.019 1.477.797.984 1.195 2.43 1.195 4.336h-4.183V13.16c0-.672-.313-1.008-.938-1.008-.312 0-.543.094-.691.281-.149.18-.223.414-.223.704 0 .289.067.562.199.82.141.25.461.578.961.984l2.379 1.934c.868.703 1.524 1.441 1.969 2.215.445.773.668 1.777.668 3.011 0 .86-.156 1.664-.469 2.414a3.877 3.877 0 01-1.511 1.817c-.704.453-1.645.68-2.825.68zm7.957-.188v-14.32h-2.449V8.544h9.024v3.96h-2.45v14.321h-4.125z"/></mask><path d="M10.2 26.825V6.2h8.25v4.02h-4.102v3.28h3.891v3.973h-3.89v9.352H10.2zm9.586 0V8.544h4.125v14.765h4.242v3.516h-8.367zm11.238 0V20.04L27.731 8.544h4.09l1.148 6.996 1.149-6.996h4.078L34.915 20.04v6.785h-3.89zm8.028 0V8.544h3.984v18.281h-3.984zm5.625 0V8.544h4.242l2.133 9.914V8.544h3.75v18.281H50.77l-2.297-9.902v9.902h-3.796zm16.207.188c-2.946 0-4.418-2.11-4.418-6.329v-6.48c0-3.852 1.687-5.777 5.062-5.777 1.39 0 2.457.253 3.2.761.742.5 1.253 1.219 1.535 2.156.28.938.421 2.067.421 3.387h-4.03v-.937c0-.446-.063-.817-.188-1.114-.118-.304-.368-.457-.75-.457-.477 0-.793.16-.95.48-.148.321-.222.673-.222 1.056v7.582c0 .554.07 1.007.21 1.359.15.344.434.516.856.516.438 0 .727-.172.867-.516.149-.352.223-.813.223-1.383v-1.476h-1.102v-3.563h5.04v10.547h-1.653l-.703-1.734c-.719 1.28-1.851 1.921-3.398 1.921zm14.835-.188V10.161H73.27V6.2h9.024v3.96h-2.45v16.665H75.72zm7.16 0l1.993-18.281h6.996l1.957 18.281h-3.902l-.27-3.328h-2.531l-.234 3.328H82.88zm5.344-15l-.761 8.379h1.804l-.855-8.379h-.188zm6.868 15V8.544h5.214c1.141 0 2.063.25 2.766.75.711.5 1.231 1.199 1.559 2.097.328.891.492 1.938.492 3.141 0 1.156-.141 2.176-.422 3.059-.281.882-.754 1.574-1.418 2.074-.656.5-1.555.75-2.695.75h-1.442v6.41h-4.054zm4.054-10.113h.235c.765 0 1.234-.203 1.406-.61.172-.406.258-.953.258-1.64 0-.633-.086-1.149-.258-1.547-.164-.406-.559-.61-1.184-.61h-.457v4.407zm12.914 10.113V6.2h8.25v4.02h-4.101v3.28h3.89v3.973h-3.89v9.352h-4.149zm9.586 0V8.544h8.25v3.984h-4.054v3.024h3.89v3.878h-3.89v3.375h4.324v4.02h-8.52zm14.789.188c-1.882 0-3.242-.47-4.078-1.407-.828-.937-1.242-2.43-1.242-4.476v-.668h4.078v1.23c0 .477.07.852.211 1.125.149.266.402.399.762.399.375 0 .633-.098.773-.293.149-.203.223-.496.223-.88 0-.507-.172-.937-.516-1.288-.336-.352-.894-.828-1.675-1.43l-1.782-1.383c-.758-.586-1.293-1.234-1.605-1.945-.313-.711-.469-1.574-.469-2.59 0-1.586.406-2.824 1.219-3.715.82-.89 2.004-1.336 3.551-1.336 1.89 0 3.23.492 4.019 1.477.797.984 1.195 2.43 1.195 4.336h-4.183V13.16c0-.672-.313-1.008-.938-1.008-.312 0-.543.094-.691.281-.149.18-.223.414-.223.704 0 .289.067.562.199.82.141.25.461.578.961.984l2.379 1.934c.868.703 1.524 1.441 1.969 2.215.445.773.668 1.777.668 3.011 0 .86-.156 1.664-.469 2.414a3.877 3.877 0 01-1.511 1.817c-.704.453-1.645.68-2.825.68zm7.957-.188v-14.32h-2.449V8.544h9.024v3.96h-2.45v14.321h-4.125z" fill="#FFE600"/><path d="M10.2 26.825h-1v1h1v-1zm0-20.625v-1h-1v1h1zm8.25 0h1v-1h-1v1zm0 4.02v1h1v-1h-1zm-4.102 0v-1h-1v1h1zm0 3.28h-1v1h1v-1zm3.891 0h1v-1h-1v1zm0 3.973v1h1v-1h-1zm-3.89 0v-1h-1v1h1zm0 9.352v1h1v-1h-1zm-4.149 0h1V6.2h-2v20.625h1zm0-20.625v1h8.25v-2H10.2v1zm8.25 0h-1v4.02h2V6.2h-1zm0 4.02v-1h-4.102v2h4.102v-1zm-4.102 0h-1v3.28h2v-3.28h-1zm0 3.28v1h3.891v-2h-3.89v1zm3.891 0h-1v3.973h2v-3.972h-1zm0 3.973v-1h-3.89v2h3.89v-1zm-3.89 0h-1v9.352h2v-9.352h-1zm0 9.352v-1H10.2v2h4.148v-1zm5.437 0h-1v1h1v-1zm0-18.281v-1h-1v1h1zm4.125 0h1v-1h-1v1zm0 14.765h-1v1h1v-1zm4.242 0h1v-1h-1v1zm0 3.516v1h1v-1h-1zm-8.367 0h1V8.544h-2v18.281h1zm0-18.281v1h4.125v-2h-4.125v1zm4.125 0h-1v14.765h2V8.544h-1zm0 14.765v1h4.242v-2h-4.242v1zm4.242 0h-1v3.516h2v-3.516h-1zm0 3.516v-1h-8.367v2h8.367v-1zm2.871 0h-1v1h1v-1zm0-6.785h1v-.14l-.038-.136-.962.276zM27.731 8.544v-1h-1.326l.365 1.275.961-.275zm4.09 0l.987-.162-.138-.838h-.849v1zm1.148 6.996l-.986.162h1.973l-.987-.162zm1.149-6.996v-1h-.85l-.137.838.987.162zm4.078 0l.962.274.364-1.274h-1.326v1zM34.915 20.04l-.962-.275-.038.135v.14h1zm0 6.785v1h1v-1h-1zm-3.89 0h1V20.04h-2v6.785h1zm0-6.785l.96-.276-3.292-11.496-.962.276-.961.275 3.293 11.496.961-.275zM27.73 8.544v1h4.09v-2h-4.09v1zm4.09 0l-.987.162 1.149 6.996.986-.162.987-.162-1.148-6.996-.987.162zm1.148 6.996l.987.162 1.149-6.996-.987-.162-.987-.162-1.148 6.996.986.162zm1.149-6.996v1h4.078v-2h-4.078v1zm4.078 0l-.962-.275-3.28 11.496.96.275.962.274 3.282-11.496-.962-.274zM34.915 20.04h-1v6.785h2V20.04h-1zm0 6.785v-1h-3.89v2h3.89v-1zm4.137 0h-1v1h1v-1zm0-18.281v-1h-1v1h1zm3.984 0h1v-1h-1v1zm0 18.281v1h1v-1h-1zm-3.984 0h1V8.544h-2v18.281h1zm0-18.281v1h3.984v-2h-3.984v1zm3.984 0h-1v18.281h2V8.544h-1zm0 18.281v-1h-3.984v2h3.984v-1zm1.64 0h-1v1h1v-1zm0-18.281v-1h-1v1h1zm4.243 0l.977-.21-.17-.79h-.807v1zm2.133 9.914l-.978.21 1.978-.21h-1zm0-9.914v-1h-1v1h1zm3.75 0h1v-1h-1v1zm0 18.281v1h1v-1h-1zm-4.032 0l-.974.226.18.774h.794v-1zm-2.297-9.902l.975-.226-1.975.226h1zm0 9.902v1h1v-1h-1zm-3.796 0h1V8.544h-2v18.281h1zm0-18.281v1h4.242v-2h-4.242v1zm4.242 0l-.978.21 2.133 9.914.978-.21.977-.21-2.133-9.915-.977.21zm2.133 9.914h1V8.544h-2v9.914h1zm0-9.914v1h3.75v-2h-3.75v1zm3.75 0h-1v18.281h2V8.544h-1zm0 18.281v-1H50.77v2h4.032v-1zm-4.032 0l.974-.226-2.296-9.902-.975.226-.974.226 2.297 9.902.974-.226zm-2.297-9.902h-1v9.902h2v-9.902h-1zm0 9.902v-1h-3.796v2h3.796v-1zM64.727 9.188l-.564.826.006.004.558-.83zm1.957 5.543v1h1v-1h-1zm-4.03 0h-1v1h1v-1zm-.188-2.05l-.934.358.006.015.006.014.922-.388zm-1.7.023l-.898-.439-.005.01-.004.008.907.42zm-.011 9.996l-.929.371.005.013.006.012.918-.396zm1.722 0l-.921-.389-.004.01.925.379zm.223-2.86h1v-1h-1v1zm-1.102 0h-1v1h1v-1zm0-3.562v-1h-1v1h1zm5.04 0h1v-1h-1v1zm0 10.547v1h1v-1h-1zm-1.653 0l-.927.376.253.624h.674v-1zm-.703-1.734l.927-.376-.782-1.927L63.41 24.6l.872.49zm-3.398 1.921v-1c-1.201 0-1.974-.41-2.494-1.154-.566-.81-.924-2.15-.924-4.174h-2c0 2.195.377 4.02 1.284 5.319.953 1.364 2.389 2.01 4.134 2.01v-1zm-4.418-6.328h1v-6.48h-2v6.48h1zm0-6.48h1c0-1.802.397-2.966 1.017-3.674.598-.683 1.549-1.103 3.045-1.103v-2c-1.878 0-3.46.542-4.549 1.785-1.067 1.218-1.513 2.942-1.513 4.992h1zm5.062-5.777v1c1.292 0 2.127.24 2.635.587l.564-.826.565-.825c-.977-.668-2.274-.936-3.764-.936v1zm3.2.761l-.56.83c.533.358.915.875 1.137 1.614l.957-.287.958-.288C66.88 9.92 66.238 9 65.286 8.36l-.559.83zm1.535 2.156l-.958.288c.245.818.38 1.845.38 3.1h2c0-1.387-.148-2.618-.465-3.675l-.957.287zm.421 3.387v-1h-4.03v2h4.03v-1zm-4.03 0h1v-.937h-2v.937h1zm0-.937h1c0-.531-.074-1.045-.267-1.502l-.921.388-.922.389c.058.136.11.365.11.725h1zm-.188-1.114l.933-.359a1.666 1.666 0 00-.688-.837 1.893 1.893 0 00-.995-.26v2c.063 0 .027.012-.046-.032a.375.375 0 01-.097-.085.264.264 0 01-.04-.068l.933-.359zm-.75-.457v-1c-.708 0-1.467.26-1.848 1.042l.898.439.9.438a.211.211 0 01-.04.053.214.214 0 01-.053.04c-.012.007-.01.003.013-.001a.67.67 0 01.13-.01v-1zm-.95.48l-.907-.42c-.214.463-.315.96-.315 1.476h2c0-.25.047-.457.13-.635l-.908-.42zm-.222 1.056h-1v7.582h2v-7.583h-1zm0 7.582h-1c0 .627.078 1.22.282 1.73l.929-.371.928-.371c-.077-.192-.14-.507-.14-.988h-1zm.21 1.359l-.917.396c.146.339.383.64.727.847.335.202.701.273 1.046.273v-2c-.077 0-.064-.016-.014.014a.25.25 0 01.061.052c.015.018.019.028.016.021l-.918.397zm.856.516v1c.346 0 .717-.068 1.056-.27.351-.208.593-.517.737-.867l-.926-.379-.925-.379c0 .002.005-.014.024-.036a.269.269 0 01.068-.058c.05-.03.058-.011-.034-.011v1zm.867-.516l.922.389c.22-.52.301-1.128.301-1.772h-2c0 .497-.067.81-.144.994l.921.389zm.223-1.383h1v-1.476h-2v1.476h1zm0-1.476v-1h-1.102v2H62.7v-1zm-1.102 0h1v-3.563h-2v3.563h1zm0-3.563v1h5.04v-2h-5.04v1zm5.04 0h-1v10.547h2V16.278h-1zm0 10.547v-1h-1.653v2h1.653v-1zm-1.653 0l.927-.376-.703-1.734-.927.376-.927.375.703 1.735.927-.376zm-.703-1.734l-.872-.49c-.53.946-1.318 1.412-2.526 1.412v2c1.885 0 3.363-.816 4.27-2.433l-.872-.49zm11.438 1.734h-1v1h1v-1zm0-16.664h1v-1h-1v1zm-2.45 0h-1v1h1v-1zm0-3.961v-1h-1v1h1zm9.024 0h1v-1h-1v1zm0 3.96v1h1v-1h-1zm-2.45 0v-1h-1v1h1zm0 16.665v1h1v-1h-1zm-4.124 0h1V10.161h-2v16.664h1zm0-16.664v-1h-2.45v2h2.45v-1zm-2.45 0h1V6.2h-2v3.96h1zm0-3.961v1h9.024v-2H73.27v1zm9.024 0h-1v3.96h2V6.2h-1zm0 3.96v-1h-2.45v2h2.45v-1zm-2.45 0h-1v16.665h2V10.161h-1zm0 16.665v-1H75.72v2h4.124v-1zm3.036 0l-.994-.108-.121 1.108h1.115v-1zm1.992-18.281v-1h-.897l-.097.891.994.109zm6.996 0l.994-.107-.095-.893h-.899v1zm1.957 18.281v1h1.113l-.119-1.107-.994.107zm-3.902 0l-.997.08.074.92h.923v-1zm-.27-3.328l.997-.08-.075-.92h-.922v1zm-2.531 0v-1h-.932l-.066.93.998.07zm-.234 3.328v1h.931l.066-.93-.998-.07zm1.335-15v-1h-.913l-.082.91.995.09zm-.761 8.379l-.996-.09-.1 1.09h1.096v-1zm1.804 0v1h1.108l-.113-1.102-.995.102zm-.855-8.379l.995-.102-.092-.898h-.903v1zm-5.531 15l.994.108 1.992-18.281-.994-.108-.994-.109-1.992 18.282.994.108zm1.992-18.281v1h6.996v-2h-6.996v1zm6.996 0l-.994.106 1.957 18.281.994-.106.994-.107-1.957-18.28-.994.106zm1.957 18.281v-1h-3.902v2h3.902v-1zm-3.902 0l.996-.08-.27-3.329-.996.08-.997.082.27 3.328.997-.081zm-.27-3.328v-1h-2.531v2h2.531v-1zm-2.531 0l-.998-.07-.234 3.328.998.07.997.07.234-3.328-.997-.07zm-.234 3.328v-1H82.88v2h4.008v-1zm1.335-15l-.995-.09-.762 8.378.996.09.996.091.761-8.379-.996-.09zm-.761 8.379v1h1.804v-2h-1.804v1zm1.804 0l.995-.102-.855-8.379-.995.102-.995.102.856 8.378.994-.101zm-.855-8.379v-1h-.188v2h.188v-1zm6.68 15h-1v1h1v-1zm0-18.281v-1h-1v1h1zm7.98.75l-.579.815.004.003.575-.818zm1.559 2.097l-.94.343.001.003.939-.346zm-1.348 8.274l-.601-.8-.005.004.606.796zm-4.137.75v-1h-1v1h1zm0 6.41v1h1v-1h-1zm0-10.113h-1v1h1v-1zm1.641-3.797l-.927.374.004.011.005.01.918-.395zm-1.64-.61v-1h-1v1h1zm-4.055 14.52h1V8.544h-2v18.281h1zm0-18.281v1h5.214v-2h-5.214v1zm5.214 0v1c1 0 1.7.218 2.187.565l.579-.815.58-.815c-.92-.654-2.063-.935-3.346-.935v1zm2.766.75l-.575.818c.527.37.929.896 1.194 1.622l.94-.343.939-.343c-.391-1.07-1.028-1.943-1.923-2.572l-.575.818zm1.559 2.097l-.939.346c.278.755.431 1.68.431 2.795h2c0-1.29-.176-2.46-.554-3.486l-.938.345zm.492 3.141h-1c0 1.078-.131 1.991-.375 2.755l.953.304.953.303c.319-1.002.469-2.127.469-3.362h-1zm-.422 3.059l-.953-.304c-.226.709-.587 1.218-1.066 1.579l.601.799.602.799c.848-.64 1.432-1.513 1.769-2.57l-.953-.303zm-1.418 2.074l-.606-.796c-.426.325-1.085.546-2.089.546v2c1.277 0 2.415-.28 3.301-.955l-.606-.795zm-2.695.75v-1h-1.442v2h1.442v-1zm-1.442 0h-1v6.41h2v-6.41h-1zm0 6.41v-1h-4.054v2h4.054v-1zm0-10.113v1h.235v-2h-.235v1zm.235 0v1c.849 0 1.904-.22 2.327-1.22l-.921-.39-.921-.39a.213.213 0 01.047-.068c.017-.016.022-.014-.004-.002-.063.027-.22.07-.528.07v1zm1.406-.61l.921.39c.245-.579.337-1.276.337-2.03h-2c0 .62-.08 1.017-.179 1.25l.921.39zm.258-1.64h1c0-.712-.095-1.376-.34-1.943l-.918.396-.918.396c.099.23.176.597.176 1.15h1zm-.258-1.547l.927-.375c-.381-.944-1.284-1.235-2.11-1.235v2c.214 0 .296.037.306.042.002 0-.01-.006-.027-.023a.132.132 0 01-.023-.035l.927-.374zm-1.184-.61v-1h-.457v2h.457v-1zm-.457 0h-1v4.407h2v-4.407h-1zm12.914 14.52h-1v1h1v-1zm0-20.625v-1h-1v1h1zm8.25 0h1v-1h-1v1zm0 4.02v1h1v-1h-1zm-4.101 0v-1h-1v1h1zm0 3.28h-1v1h1v-1zm3.89 0h1v-1h-1v1zm0 3.973v1h1v-1h-1zm-3.89 0v-1h-1v1h1zm0 9.352v1h1v-1h-1zm-4.149 0h1V6.2h-2v20.625h1zm0-20.625v1h8.25v-2h-8.25v1zm8.25 0h-1v4.02h2V6.2h-1zm0 4.02v-1h-4.101v2h4.101v-1zm-4.101 0h-1v3.28h2v-3.28h-1zm0 3.28v1h3.89v-2h-3.89v1zm3.89 0h-1v3.973h2v-3.972h-1zm0 3.973v-1h-3.89v2h3.89v-1zm-3.89 0h-1v9.352h2v-9.352h-1zm0 9.352v-1h-4.149v2h4.149v-1zm5.437 0h-1v1h1v-1zm0-18.281v-1h-1v1h1zm8.25 0h1v-1h-1v1zm0 3.984v1h1v-1h-1zm-4.054 0v-1h-1v1h1zm0 3.024h-1v1h1v-1zm3.89 0h1v-1h-1v1zm0 3.878v1h1v-1h-1zm-3.89 0v-1h-1v1h1zm0 3.375h-1v1h1v-1zm4.324 0h1v-1h-1v1zm0 4.02v1h1v-1h-1zm-8.52 0h1V8.544h-2v18.281h1zm0-18.281v1h8.25v-2h-8.25v1zm8.25 0h-1v3.984h2V8.544h-1zm0 3.984v-1h-4.054v2h4.054v-1zm-4.054 0h-1v3.024h2v-3.024h-1zm0 3.024v1h3.89v-2h-3.89v1zm3.89 0h-1v3.878h2v-3.878h-1zm0 3.878v-1h-3.89v2h3.89v-1zm-3.89 0h-1v3.375h2V19.43h-1zm0 3.375v1h4.324v-2h-4.324v1zm4.324 0h-1v4.02h2v-4.02h-1zm0 4.02v-1h-8.52v2h8.52v-1zm2.191-1.219l-.749.662.003.004.746-.666zm-1.242-5.144v-1h-1v1h1zm4.078 0h1v-1h-1v1zm.211 2.355l-.889.457.008.016.008.015.873-.488zm1.535.106l-.807-.59-.004.005.811.585zm-.293-2.168l-.723.69.008.009.715-.7zm-1.675-1.43l-.614.79.003.002.611-.792zm-1.782-1.383l.613-.79-.001-.001-.612.791zm-.855-8.25l-.736-.677-.003.003.739.674zm7.57.14l-.78.626.003.004.777-.63zm1.195 4.337v1h1v-1h-1zm-4.183 0h-1v1h1v-1zm-1.629-1.735l.771.637.007-.008.006-.008-.784-.62zm-.024 1.524l-.888.458.008.016.009.016.871-.49zm.961.984l.631-.776-.631.776zm2.379 1.934l-.63.776h.001l.629-.776zm2.168 7.64l-.923-.384-.003.008.926.376zm-1.511 1.817l.541.84.007-.004-.548-.836zm-2.825.68v-1c-1.741 0-2.763-.435-3.331-1.072l-.747.665-.746.666c1.104 1.238 2.8 1.74 4.824 1.74v-1zm-4.078-1.407l.75-.662c-.591-.67-.992-1.866-.992-3.814h-2c0 2.145.428 3.933 1.493 5.138l.749-.662zm-1.242-4.476h1v-.668h-2v.668h1zm0-.668v1h4.078v-2h-4.078v1zm4.078 0h-1v1.23h2v-1.23h-1zm0 1.23h-1c0 .557.079 1.11.322 1.582l.889-.457.889-.457c-.038-.075-.1-.271-.1-.668h-1zm.211 1.125l-.873.488c.361.645.992.91 1.635.91v-2c-.059 0-.045-.01.003.015.024.012.048.03.07.05.021.022.033.04.038.05l-.873.487zm.762.399v1c.512 0 1.17-.132 1.585-.71l-.812-.583-.811-.585a.41.41 0 01.091-.093.306.306 0 01.067-.038c.01-.004.008-.001-.013.002a.728.728 0 01-.107.007v1zm.773-.293l.808.59c.323-.443.415-.979.415-1.47h-2c0 .13-.013.214-.025.262-.012.047-.02.048-.005.028l.807.59zm.223-.88h1c0-.759-.268-1.442-.801-1.988l-.715.7-.715.699a.776.776 0 01.231.59h1zm-.516-1.288l.723-.691c-.39-.41-.999-.924-1.788-1.531l-.61.792-.611.792c.774.596 1.282 1.034 1.563 1.328l.723-.69zm-1.675-1.43l.613-.79-1.782-1.383-.613.79-.613.79 1.781 1.383.614-.79zm-1.782-1.383l.612-.791c-.656-.507-1.07-1.03-1.302-1.557l-.915.403-.916.402c.394.896 1.05 1.67 1.91 2.334l.611-.79zm-1.605-1.945l.915-.403c-.242-.551-.384-1.27-.384-2.187h-2c0 1.113.171 2.122.553 2.992l.916-.402zm-.469-2.59h1c0-1.417.361-2.386.958-3.04l-.739-.675-.739-.674c-1.028 1.127-1.48 2.634-1.48 4.389h1zm1.219-3.715l.735.678c.582-.632 1.466-1.014 2.816-1.014v-2c-1.744 0-3.228.509-4.287 1.659l.736.677zm3.551-1.336v1c1.742 0 2.719.454 3.239 1.102l.78-.625.78-.626c-1.058-1.32-2.76-1.85-4.799-1.85v1zm4.019 1.477l-.777.629c.596.736.972 1.919.972 3.707h2c0-2.025-.42-3.733-1.418-4.965l-.777.629zm1.195 4.336v-1h-4.183v2h4.183v-1zm-4.183 0h1V13.16h-2v1.008h1zm0-1.008h1c0-.473-.109-1.014-.502-1.437-.407-.437-.95-.57-1.436-.57v2c.07 0 .088.009.073.004a.306.306 0 01-.14-.123l-.009-.019a.85.85 0 01.014.145h1zm-.938-1.008v-1c-.516 0-1.082.164-1.475.66l.784.621.784.621a.34.34 0 01-.123.095c-.031.012-.029.003.03.003v-1zm-.691.281l-.771-.637c-.329.4-.452.877-.452 1.34h2c0-.06.008-.086.009-.09l-.003.006a.114.114 0 01-.012.018l-.771-.637zm-.223.704h-1c0 .448.105.879.311 1.278l.888-.458.889-.458a.768.768 0 01-.088-.363h-1zm.199.82l-.871.49c.241.43.696.859 1.202 1.27l.63-.776.631-.776c-.494-.401-.68-.628-.72-.699l-.872.49zm.961.984l-.63.776 2.379 1.934.63-.776.631-.776-2.379-1.934-.631.776zm2.379 1.934l-.629.776c.794.645 1.361 1.293 1.731 1.938l.867-.5.867-.498c-.52-.903-1.266-1.731-2.206-2.493l-.63.777zm1.969 2.215l-.867.498c.331.575.535 1.39.535 2.513h2c0-1.345-.241-2.538-.801-3.51l-.867.499zm.668 3.011h-1a5.21 5.21 0 01-.392 2.03l.923.384.923.385a7.198 7.198 0 00.546-2.799h-1zm-.469 2.414l-.926-.376a2.878 2.878 0 01-1.134 1.356l.549.837.548.836a4.88 4.88 0 001.89-2.276l-.927-.377zm-1.511 1.817l-.542-.84c-.488.314-1.22.52-2.283.52v2c1.297 0 2.448-.248 3.366-.84l-.541-.84zm5.132.492h-1v1h1v-1zm0-14.32h1v-1h-1v1zm-2.449 0h-1v1h1v-1zm0-3.961v-1h-1v1h1zm9.024 0h1v-1h-1v1zm0 3.96v1h1v-1h-1zm-2.45 0v-1h-1v1h1zm0 14.321v1h1v-1h-1zm-4.125 0h1v-14.32h-2v14.32h1zm0-14.32v-1h-2.449v2h2.449v-1zm-2.449 0h1V8.544h-2v3.96h1zm0-3.961v1h9.024v-2h-9.024v1zm9.024 0h-1v3.96h2v-3.96h-1zm0 3.96v-1h-2.45v2h2.45v-1zm-2.45 0h-1v14.321h2v-14.32h-1zm0 14.321v-1h-4.125v2h4.125v-1z" fill="#000" mask="url(#b)"/></g><defs><filter id="a" x="0" y="0" width="161.166" height="41.212" filterUnits="userSpaceOnUse" color-interpolation-filters="sRGB"><feFlood flood-opacity="0" result="BackgroundImageFix"/><feColorMatrix in="SourceAlpha" values="0 0 0 0 0 0 0 0 0 0 0 0 0 0 0 0 0 0 127 0" result="hardAlpha"/><feOffset dy="4"/><feGaussianBlur stdDeviation="4.6"/><feComposite in2="hardAlpha" operator="out"/><feColorMatrix values="0 0 0 0 0 0 0 0 0 0 0 0 0 0 0 0 0 0 1 0"/><feBlend in2="BackgroundImageFix" result="effect1_dropShadow_33_252"/><feBlend in="SourceGraphic" in2="effect1_dropShadow_33_252" result="shape"/></filter></defs></svg>