<svg width="393" height="70" fill="none" xmlns="http://www.w3.org/2000/svg"><path fill="#01123E" d="M0 0H393V70H0z"/><g filter="url(#a)"><mask id="b" maskUnits="userSpaceOnUse" x="81" y="20" width="144" height="24" fill="#000"><path fill="#fff" d="M81 20H225V44H81z"/><path d="M82.957 42V21.375h8.25v4.02h-4.101v3.28h3.89v3.973h-3.89V42h-4.149zm9.586 0V23.719h4.125v14.765h4.242V42h-8.367zm11.238 0v-6.785l-3.293-11.496h4.09l1.149 6.996 1.148-6.996h4.078l-3.281 11.496V42h-3.891zm8.028 0V23.719h3.984V42h-3.984zm5.625 0V23.719h4.242l2.133 9.914v-9.914h3.75V42h-4.032l-2.297-9.902V42h-3.796zm16.207.188c-2.946 0-4.418-2.11-4.418-6.329v-6.48c0-3.852 1.687-5.777 5.062-5.777 1.391 0 2.457.253 3.199.761.743.5 1.254 1.219 1.536 2.157.281.937.421 2.066.421 3.386h-4.031v-.937c0-.446-.062-.817-.187-1.114-.118-.304-.368-.457-.75-.457-.477 0-.793.16-.95.48-.148.321-.222.673-.222 1.056v7.582c0 .554.07 1.007.211 1.359.148.344.433.516.855.516.438 0 .727-.172.867-.516.149-.352.223-.813.223-1.383v-1.476h-1.102v-3.563h5.04V42h-1.653l-.703-1.734c-.719 1.28-1.851 1.922-3.398 1.922zM148.477 42V25.336h-2.45v-3.961h9.024v3.96h-2.449V42h-4.125zm7.16 0l1.992-18.281h6.996L166.582 42h-3.902l-.27-3.328h-2.531L159.645 42h-4.008zm5.343-15l-.761 8.379h1.804L161.168 27h-.188zm6.868 15V23.719h5.214c1.141 0 2.063.25 2.766.75.711.5 1.231 1.199 1.559 2.097.328.891.492 1.938.492 3.141 0 1.156-.141 2.176-.422 3.059-.281.882-.754 1.574-1.418 2.074-.656.5-1.555.75-2.695.75h-1.442V42h-4.054zm4.054-10.113h.235c.765 0 1.234-.203 1.406-.61.172-.406.258-.953.258-1.64 0-.633-.086-1.149-.258-1.547-.164-.406-.559-.61-1.184-.61h-.457v4.407zM184.816 42V21.375h8.25v4.02h-4.101v3.28h3.89v3.973h-3.89V42h-4.149zm9.586 0V23.719h8.25v3.984h-4.054v3.024h3.89v3.878h-3.89v3.376h4.324V42h-8.52zm14.789.188c-1.882 0-3.242-.47-4.078-1.407-.828-.937-1.242-2.43-1.242-4.476v-.668h4.078v1.23c0 .477.071.852.211 1.125.149.266.402.399.762.399.375 0 .633-.098.773-.293.149-.203.223-.496.223-.88 0-.507-.172-.937-.516-1.288-.336-.352-.894-.828-1.675-1.43l-1.782-1.383c-.757-.586-1.293-1.234-1.605-1.945-.313-.711-.469-1.574-.469-2.59 0-1.586.406-2.824 1.219-3.715.82-.89 2.004-1.336 3.551-1.336 1.89 0 3.23.492 4.019 1.477.797.984 1.195 2.43 1.195 4.336h-4.183v-1.008c0-.672-.313-1.008-.938-1.008-.312 0-.543.094-.691.281-.148.18-.223.414-.223.703 0 .29.067.563.2.82.14.25.46.579.96.985l2.379 1.934c.868.703 1.524 1.441 1.969 2.215.445.773.668 1.777.668 3.011 0 .86-.156 1.664-.469 2.414a3.877 3.877 0 01-1.511 1.817c-.704.453-1.645.68-2.825.68zm7.957-.188V27.68h-2.449v-3.961h9.024v3.96h-2.45V42h-4.125z"/></mask><path d="M82.957 42V21.375h8.25v4.02h-4.101v3.28h3.89v3.973h-3.89V42h-4.149zm9.586 0V23.719h4.125v14.765h4.242V42h-8.367zm11.238 0v-6.785l-3.293-11.496h4.09l1.149 6.996 1.148-6.996h4.078l-3.281 11.496V42h-3.891zm8.028 0V23.719h3.984V42h-3.984zm5.625 0V23.719h4.242l2.133 9.914v-9.914h3.75V42h-4.032l-2.297-9.902V42h-3.796zm16.207.188c-2.946 0-4.418-2.11-4.418-6.329v-6.48c0-3.852 1.687-5.777 5.062-5.777 1.391 0 2.457.253 3.199.761.743.5 1.254 1.219 1.536 2.157.281.937.421 2.066.421 3.386h-4.031v-.937c0-.446-.062-.817-.187-1.114-.118-.304-.368-.457-.75-.457-.477 0-.793.16-.95.48-.148.321-.222.673-.222 1.056v7.582c0 .554.07 1.007.211 1.359.148.344.433.516.855.516.438 0 .727-.172.867-.516.149-.352.223-.813.223-1.383v-1.476h-1.102v-3.563h5.04V42h-1.653l-.703-1.734c-.719 1.28-1.851 1.922-3.398 1.922zM148.477 42V25.336h-2.45v-3.961h9.024v3.96h-2.449V42h-4.125zm7.16 0l1.992-18.281h6.996L166.582 42h-3.902l-.27-3.328h-2.531L159.645 42h-4.008zm5.343-15l-.761 8.379h1.804L161.168 27h-.188zm6.868 15V23.719h5.214c1.141 0 2.063.25 2.766.75.711.5 1.231 1.199 1.559 2.097.328.891.492 1.938.492 3.141 0 1.156-.141 2.176-.422 3.059-.281.882-.754 1.574-1.418 2.074-.656.5-1.555.75-2.695.75h-1.442V42h-4.054zm4.054-10.113h.235c.765 0 1.234-.203 1.406-.61.172-.406.258-.953.258-1.64 0-.633-.086-1.149-.258-1.547-.164-.406-.559-.61-1.184-.61h-.457v4.407zM184.816 42V21.375h8.25v4.02h-4.101v3.28h3.89v3.973h-3.89V42h-4.149zm9.586 0V23.719h8.25v3.984h-4.054v3.024h3.89v3.878h-3.89v3.376h4.324V42h-8.52zm14.789.188c-1.882 0-3.242-.47-4.078-1.407-.828-.937-1.242-2.43-1.242-4.476v-.668h4.078v1.23c0 .477.071.852.211 1.125.149.266.402.399.762.399.375 0 .633-.098.773-.293.149-.203.223-.496.223-.88 0-.507-.172-.937-.516-1.288-.336-.352-.894-.828-1.675-1.43l-1.782-1.383c-.757-.586-1.293-1.234-1.605-1.945-.313-.711-.469-1.574-.469-2.59 0-1.586.406-2.824 1.219-3.715.82-.89 2.004-1.336 3.551-1.336 1.89 0 3.23.492 4.019 1.477.797.984 1.195 2.43 1.195 4.336h-4.183v-1.008c0-.672-.313-1.008-.938-1.008-.312 0-.543.094-.691.281-.148.18-.223.414-.223.703 0 .29.067.563.2.82.14.25.46.579.96.985l2.379 1.934c.868.703 1.524 1.441 1.969 2.215.445.773.668 1.777.668 3.011 0 .86-.156 1.664-.469 2.414a3.877 3.877 0 01-1.511 1.817c-.704.453-1.645.68-2.825.68zm7.957-.188V27.68h-2.449v-3.961h9.024v3.96h-2.45V42h-4.125z" fill="#FFE600"/><path d="M82.957 42h-1v1h1v-1zm0-20.625v-1h-1v1h1zm8.25 0h1v-1h-1v1zm0 4.02v1h1v-1h-1zm-4.101 0v-1h-1v1h1zm0 3.28h-1v1h1v-1zm3.89 0h1v-1h-1v1zm0 3.973v1h1v-1h-1zm-3.89 0v-1h-1v1h1zm0 9.352v1h1v-1h-1zm-4.149 0h1V21.375h-2V42h1zm0-20.625v1h8.25v-2h-8.25v1zm8.25 0h-1v4.02h2v-4.02h-1zm0 4.02v-1h-4.101v2h4.101v-1zm-4.101 0h-1v3.28h2v-3.28h-1zm0 3.28v1h3.89v-2h-3.89v1zm3.89 0h-1v3.973h2v-3.972h-1zm0 3.973v-1h-3.89v2h3.89v-1zm-3.89 0h-1V42h2v-9.352h-1zm0 9.352v-1h-4.149v2h4.149v-1zm5.437 0h-1v1h1v-1zm0-18.281v-1h-1v1h1zm4.125 0h1v-1h-1v1zm0 14.765h-1v1h1v-1zm4.242 0h1v-1h-1v1zm0 3.516v1h1v-1h-1zm-8.367 0h1V23.719h-2V42h1zm0-18.281v1h4.125v-2h-4.125v1zm4.125 0h-1v14.765h2V23.72h-1zm0 14.765v1h4.242v-2h-4.242v1zm4.242 0h-1V42h2v-3.516h-1zm0 3.516v-1h-8.367v2h8.367v-1zm2.871 0h-1v1h1v-1zm0-6.785h1v-.14l-.038-.136-.962.276zm-3.293-11.496v-1h-1.326l.365 1.275.961-.275zm4.09 0l.987-.162-.138-.838h-.849v1zm1.149 6.996l-.987.162h1.973l-.986-.162zm1.148-6.996v-1h-.849l-.138.838.987.162zm4.078 0l.962.274.363-1.274h-1.325v1zm-3.281 11.496l-.962-.275-.038.135v.14h1zm0 6.785v1h1v-1h-1zm-3.891 0h1v-6.785h-2V42h1zm0-6.785l.962-.276-3.293-11.496-.962.276-.961.275 3.293 11.496.961-.275zm-3.293-11.496v1h4.09v-2h-4.09v1zm4.09 0l-.987.162 1.149 6.996.987-.162.986-.162-1.148-6.996-.987.162zm1.149 6.996l.986.162 1.149-6.996-.987-.162-.987-.162-1.148 6.996.987.162zm1.148-6.996v1h4.078v-2h-4.078v1zm4.078 0l-.961-.275-3.282 11.496.962.275.961.274 3.282-11.496-.962-.274zm-3.281 11.496h-1V42h2v-6.785h-1zm0 6.785v-1h-3.891v2h3.891v-1zm4.137 0h-1v1h1v-1zm0-18.281v-1h-1v1h1zm3.984 0h1v-1h-1v1zm0 18.281v1h1v-1h-1zm-3.984 0h1V23.719h-2V42h1zm0-18.281v1h3.984v-2h-3.984v1zm3.984 0h-1V42h2V23.719h-1zm0 18.281v-1h-3.984v2h3.984v-1zm1.641 0h-1v1h1v-1zm0-18.281v-1h-1v1h1zm4.242 0l.977-.21-.169-.79h-.808v1zm2.133 9.914l-.978.21 1.978-.21h-1zm0-9.914v-1h-1v1h1zm3.75 0h1v-1h-1v1zm0 18.281v1h1v-1h-1zm-4.032 0l-.974.226.18.774h.794v-1zm-2.297-9.902l.975-.226-1.975.226h1zm0 9.902v1h1v-1h-1zm-3.796 0h1V23.719h-2V42h1zm0-18.281v1h4.242v-2h-4.242v1zm4.242 0l-.978.21 2.133 9.914.978-.21.977-.21-2.133-9.915-.977.21zm2.133 9.914h1v-9.914h-2v9.914h1zm0-9.914v1h3.75v-2h-3.75v1zm3.75 0h-1V42h2V23.719h-1zm0 18.281v-1h-4.032v2h4.032v-1zm-4.032 0l.974-.226-2.296-9.902-.975.226-.974.226 2.297 9.902.974-.226zm-2.297-9.902h-1V42h2v-9.902h-1zm0 9.902v-1h-3.796v2h3.796v-1zm16.254-17.637l-.564.826.006.004.558-.83zm1.957 5.543v1h1v-1h-1zm-4.031 0h-1v1h1v-1zm-.187-2.05l-.934.358.006.015.006.015.922-.389zm-1.7.023l-.898-.439-.005.01-.004.008.907.42zm-.011 9.996l-.929.371.005.013.006.012.918-.396zm1.722 0l-.921-.389-.004.01.925.379zm.223-2.86h1v-1h-1v1zm-1.102 0h-1v1h1v-1zm0-3.562v-1h-1v1h1zm5.04 0h1v-1h-1v1zm0 10.547v1h1v-1h-1zm-1.653 0l-.927.376.254.624h.673v-1zm-.703-1.734l.927-.376-.782-1.928-1.017 1.814.872.49zm-3.398 1.922v-1c-1.201 0-1.974-.41-2.494-1.155-.566-.81-.924-2.15-.924-4.174h-2c0 2.195.377 4.02 1.284 5.319.953 1.364 2.389 2.01 4.134 2.01v-1zm-4.418-6.329h1v-6.48h-2v6.48h1zm0-6.48h1c0-1.802.397-2.966 1.017-3.674.598-.683 1.549-1.103 3.045-1.103v-2c-1.878 0-3.459.542-4.549 1.785-1.067 1.218-1.513 2.942-1.513 4.992h1zm5.062-5.777v1c1.292 0 2.127.24 2.635.587l.564-.826.565-.825c-.977-.668-2.274-.936-3.764-.936v1zm3.199.761l-.558.83c.532.358.914.876 1.136 1.614l.958-.287.957-.288c-.341-1.136-.982-2.057-1.934-2.698l-.559.83zm1.536 2.157l-.958.287c.245.818.379 1.845.379 3.1h2c0-1.387-.147-2.618-.464-3.675l-.957.288zm.421 3.386v-1h-4.031v2h4.031v-1zm-4.031 0h1v-.937h-2v.937h1zm0-.937h1c0-.531-.073-1.045-.266-1.502l-.921.389-.922.387c.058.137.109.366.109.726h1zm-.187-1.114l.933-.358a1.663 1.663 0 00-.688-.838 1.894 1.894 0 00-.995-.26v2c.063 0 .027.012-.046-.032a.377.377 0 01-.097-.085.306.306 0 01-.041-.068l.934-.358zm-.75-.457v-1c-.708 0-1.467.26-1.848 1.043l.898.438.899.438a.214.214 0 01-.092.094c-.012.006-.01.002.013-.002a.678.678 0 01.13-.01v-1zm-.95.48l-.907-.42c-.214.463-.315.96-.315 1.476h2c0-.25.047-.457.13-.635l-.908-.42zm-.222 1.056h-1v7.582h2v-7.582h-1zm0 7.582h-1c0 .628.078 1.22.282 1.73l.929-.371.928-.371c-.077-.192-.139-.507-.139-.988h-1zm.211 1.359l-.918.396c.146.339.384.64.727.847.335.202.701.273 1.046.273v-2c-.077 0-.064-.016-.014.014a.253.253 0 01.061.052c.015.018.019.028.016.022l-.918.396zm.855.516v1c.346 0 .717-.068 1.056-.27.351-.208.593-.517.737-.867l-.926-.379-.925-.379a.27.27 0 01.092-.094c.05-.03.058-.011-.034-.011v1zm.867-.516l.922.389c.219-.52.301-1.128.301-1.772h-2c0 .497-.067.81-.144.994l.921.389zm.223-1.383h1v-1.476h-2v1.476h1zm0-1.476v-1h-1.102v2h1.102v-1zm-1.102 0h1v-3.563h-2v3.563h1zm0-3.563v1h5.04v-2h-5.04v1zm5.04 0h-1V42h2V31.453h-1zm0 10.547v-1h-1.653v2h1.653v-1zm-1.653 0l.927-.376-.703-1.734-.927.376-.927.375.703 1.735.927-.376zm-.703-1.734l-.872-.49c-.531.946-1.318 1.411-2.526 1.411v2c1.885 0 3.363-.815 4.27-2.432l-.872-.49zM148.477 42h-1v1h1v-1zm0-16.664h1v-1h-1v1zm-2.45 0h-1v1h1v-1zm0-3.961v-1h-1v1h1zm9.024 0h1v-1h-1v1zm0 3.96v1h1v-1h-1zm-2.449 0v-1h-1v1h1zm0 16.665v1h1v-1h-1zm-4.125 0h1V25.336h-2V42h1zm0-16.664v-1h-2.45v2h2.45v-1zm-2.45 0h1v-3.961h-2v3.96h1zm0-3.961v1h9.024v-2h-9.024v1zm9.024 0h-1v3.96h2v-3.96h-1zm0 3.96v-1h-2.449v2h2.449v-1zm-2.449 0h-1V42h2V25.336h-1zm0 16.665v-1h-4.125v2h4.125v-1zm3.035 0l-.994-.108-.121 1.108h1.115v-1zm1.992-18.281v-1h-.897l-.097.891.994.109zm6.996 0l.994-.107-.095-.893h-.899v1zM166.582 42v1h1.113l-.119-1.106-.994.106zm-3.902 0l-.997.08.074.92h.923v-1zm-.27-3.328l.997-.08-.075-.92h-.922v1zm-2.531 0v-1h-.932l-.066.93.998.07zM159.645 42v1h.932l.065-.93-.997-.07zm1.335-15v-1h-.913l-.082.91.995.09zm-.761 8.379l-.996-.09-.099 1.09h1.095v-1zm1.804 0v1h1.108l-.113-1.102-.995.102zM161.168 27l.995-.102-.092-.898h-.903v1zm-5.531 15l.994.108 1.992-18.28-.994-.11-.994-.108-1.992 18.282.994.108zm1.992-18.281v1h6.996v-2h-6.996v1zm6.996 0l-.994.106 1.957 18.281.994-.106.994-.106-1.957-18.282-.994.107zM166.582 42v-1h-3.902v2h3.902v-1zm-3.902 0l.996-.08-.269-3.329-.997.08-.997.082.27 3.328.997-.081zm-.27-3.328v-1h-2.531v2h2.531v-1zm-2.531 0l-.998-.07-.234 3.328.998.07.997.07.234-3.328-.997-.07zM159.645 42v-1h-4.008v2h4.008v-1zm1.335-15l-.995-.09-.762 8.378.996.09.996.091.761-8.379-.996-.09zm-.761 8.379v1h1.804v-2h-1.804v1zm1.804 0l.995-.102-.855-8.379-.995.102-.995.102.856 8.378.994-.101zM161.168 27v-1h-.188v2h.188v-1zm6.68 15h-1v1h1v-1zm0-18.281v-1h-1v1h1zm7.98.75l-.579.815.004.003.575-.818zm1.559 2.097l-.94.344.001.002.939-.346zm-1.348 8.274l-.601-.799-.005.003.606.796zm-4.137.75v-1h-1v1h1zm0 6.41v1h1v-1h-1zm0-10.113h-1v1h1v-1zm1.641-3.797l-.927.374.004.011.005.01.918-.395zm-1.641-.61v-1h-1v1h1zM167.848 42h1V23.719h-2V42h1zm0-18.281v1h5.214v-2h-5.214v1zm5.214 0v1c1 0 1.7.218 2.187.565l.579-.815.58-.815c-.92-.654-2.063-.935-3.346-.935v1zm2.766.75l-.575.818c.527.37.929.896 1.194 1.623l.94-.344.939-.343c-.391-1.07-1.028-1.943-1.923-2.572l-.575.818zm1.559 2.097l-.939.346c.278.755.431 1.68.431 2.795h2c0-1.29-.176-2.46-.554-3.486l-.938.345zm.492 3.141h-1c0 1.078-.131 1.991-.375 2.755l.953.304.953.303c.319-1.002.469-2.127.469-3.362h-1zm-.422 3.059l-.953-.304c-.226.709-.587 1.218-1.066 1.579l.601.799.602.799c.848-.64 1.432-1.513 1.769-2.57l-.953-.303zm-1.418 2.074l-.606-.796c-.426.325-1.085.546-2.089.546v2c1.277 0 2.415-.28 3.301-.955l-.606-.795zm-2.695.75v-1h-1.442v2h1.442v-1zm-1.442 0h-1V42h2v-6.41h-1zm0 6.41v-1h-4.054v2h4.054v-1zm0-10.113v1h.235v-2h-.235v1zm.235 0v1c.849 0 1.904-.22 2.327-1.22l-.921-.39-.921-.39a.22.22 0 01.047-.068c.017-.016.022-.013-.004-.002-.062.027-.22.07-.528.07v1zm1.406-.61l.921.39c.245-.579.337-1.276.337-2.03h-2c0 .62-.08 1.017-.179 1.25l.921.39zm.258-1.64h1c0-.712-.095-1.376-.34-1.943l-.918.396-.918.396c.099.23.176.597.176 1.15h1zm-.258-1.547l.927-.375c-.381-.944-1.284-1.235-2.111-1.235v2c.215 0 .297.037.307.042.002 0-.011-.006-.026-.023a.129.129 0 01-.024-.035l.927-.374zm-1.184-.61v-1h-.457v2h.457v-1zm-.457 0h-1v4.407h2V27.48h-1zM184.816 42h-1v1h1v-1zm0-20.625v-1h-1v1h1zm8.25 0h1v-1h-1v1zm0 4.02v1h1v-1h-1zm-4.101 0v-1h-1v1h1zm0 3.28h-1v1h1v-1zm3.89 0h1v-1h-1v1zm0 3.973v1h1v-1h-1zm-3.89 0v-1h-1v1h1zm0 9.352v1h1v-1h-1zm-4.149 0h1V21.375h-2V42h1zm0-20.625v1h8.25v-2h-8.25v1zm8.25 0h-1v4.02h2v-4.02h-1zm0 4.02v-1h-4.101v2h4.101v-1zm-4.101 0h-1v3.28h2v-3.28h-1zm0 3.28v1h3.89v-2h-3.89v1zm3.89 0h-1v3.973h2v-3.972h-1zm0 3.973v-1h-3.89v2h3.89v-1zm-3.89 0h-1V42h2v-9.352h-1zm0 9.352v-1h-4.149v2h4.149v-1zm5.437 0h-1v1h1v-1zm0-18.281v-1h-1v1h1zm8.25 0h1v-1h-1v1zm0 3.984v1h1v-1h-1zm-4.054 0v-1h-1v1h1zm0 3.024h-1v1h1v-1zm3.89 0h1v-1h-1v1zm0 3.878v1h1v-1h-1zm-3.89 0v-1h-1v1h1zm0 3.376h-1v1h1v-1zm4.324 0h1v-1h-1v1zm0 4.019v1h1v-1h-1zm-8.52 0h1V23.719h-2V42h1zm0-18.281v1h8.25v-2h-8.25v1zm8.25 0h-1v3.984h2V23.72h-1zm0 3.984v-1h-4.054v2h4.054v-1zm-4.054 0h-1v3.024h2v-3.024h-1zm0 3.024v1h3.89v-2h-3.89v1zm3.89 0h-1v3.878h2v-3.878h-1zm0 3.878v-1h-3.89v2h3.89v-1zm-3.89 0h-1v3.376h2v-3.376h-1zm0 3.376v1h4.324v-2h-4.324v1zm4.324 0h-1V42h2v-4.02h-1zm0 4.019v-1h-8.52v2h8.52v-1zm2.191-1.219l-.749.662.003.004.746-.666zm-1.242-5.144v-1h-1v1h1zm4.078 0h1v-1h-1v1zm.211 2.355l-.889.458.008.015.008.015.873-.488zm1.535.106l-.807-.59-.004.005.811.585zm-.293-2.168l-.723.69.008.009.715-.7zm-1.675-1.43l-.614.79.003.002.611-.792zm-1.782-1.383l.614-.79h-.002l-.612.79zm-.855-8.25l-.736-.677-.003.003.739.674zm7.57.14l-.78.626.003.004.777-.63zm1.195 4.337v1h1v-1h-1zm-4.183 0h-1v1h1v-1zm-1.629-1.735l.771.637.007-.008.006-.008-.784-.62zm-.023 1.524l-.889.458.008.016.009.016.872-.49zm.96.984l.631-.776-.631.776zm2.379 1.934l-.63.776h.001l.629-.776zm2.168 7.64l-.923-.384-.003.008.926.376zm-1.511 1.817l.541.84.007-.004-.548-.836zm-2.825.68v-1c-1.74 0-2.763-.435-3.331-1.072l-.747.665-.746.666c1.104 1.238 2.8 1.74 4.824 1.74v-1zm-4.078-1.407l.75-.662c-.591-.669-.992-1.866-.992-3.814h-2c0 2.145.428 3.932 1.493 5.138l.749-.662zm-1.242-4.476h1v-.668h-2v.668h1zm0-.668v1h4.078v-2h-4.078v1zm4.078 0h-1v1.23h2v-1.23h-1zm0 1.23h-1c0 .557.079 1.11.322 1.583l.889-.458.889-.457c-.038-.075-.1-.271-.1-.668h-1zm.211 1.125l-.873.488c.361.645.992.91 1.635.91v-2c-.059 0-.044-.01.003.015.024.012.048.03.07.051a.22.22 0 01.038.048l-.873.488zm.762.399v1c.512 0 1.17-.132 1.585-.709l-.812-.584-.811-.585a.408.408 0 01.091-.093.308.308 0 01.067-.038c.01-.004.008-.001-.013.002a.728.728 0 01-.107.007v1zm.773-.293l.808.59c.323-.443.415-.979.415-1.47h-2c0 .13-.013.214-.025.262-.012.047-.02.048-.005.028l.807.59zm.223-.88h1c0-.759-.268-1.442-.801-1.987l-.715.699-.715.699a.776.776 0 01.231.59h1zm-.516-1.288l.723-.691c-.39-.41-.999-.923-1.788-1.531l-.61.792-.611.792c.774.596 1.282 1.034 1.563 1.328l.723-.69zm-1.675-1.43l.613-.79-1.781-1.383-.614.79-.613.79 1.781 1.383.614-.79zm-1.782-1.383l.612-.79c-.656-.508-1.07-1.031-1.302-1.557l-.915.402-.916.402c.394.896 1.05 1.67 1.91 2.334l.611-.79zm-1.605-1.945l.915-.402c-.242-.552-.384-1.27-.384-2.188h-2c0 1.113.171 2.122.553 2.992l.916-.402zm-.469-2.59h1c0-1.417.361-2.386.958-3.04l-.739-.675-.739-.674c-1.028 1.127-1.48 2.634-1.48 4.389h1zm1.219-3.715l.735.678c.582-.632 1.466-1.014 2.816-1.014v-2c-1.744 0-3.228.509-4.287 1.659l.736.677zm3.551-1.336v1c1.742 0 2.719.454 3.239 1.102l.78-.625.78-.626c-1.058-1.32-2.76-1.85-4.799-1.85v1zm4.019 1.477l-.777.629c.596.736.972 1.919.972 3.707h2c0-2.025-.42-3.733-1.418-4.965l-.777.629zm1.195 4.336v-1h-4.183v2h4.183v-1zm-4.183 0h1v-1.008h-2v1.008h1zm0-1.008h1c0-.473-.109-1.014-.502-1.437-.407-.437-.95-.57-1.436-.57v2c.07 0 .088.009.073.003a.34.34 0 01-.102-.071.28.28 0 01-.038-.052l-.009-.018a.848.848 0 01.014.145h1zm-.938-1.008v-1c-.516 0-1.082.164-1.475.66l.784.621.784.621a.34.34 0 01-.123.095c-.031.012-.029.003.03.003v-1zm-.691.281l-.771-.637c-.329.4-.452.877-.452 1.34h2c0-.06.008-.086.009-.09l-.003.006a.119.119 0 01-.012.018l-.771-.637zm-.223.703h-1c0 .45.105.88.311 1.279l.889-.458.889-.458a.758.758 0 01-.089-.363h-1zm.2.82l-.872.491c.241.43.696.86 1.202 1.27l.63-.776.631-.776c-.494-.401-.68-.628-.72-.698l-.871.49zm.96.985l-.63.776 2.379 1.934.63-.776.631-.776-2.379-1.934-.631.776zm2.379 1.934l-.629.776c.794.645 1.361 1.294 1.732 1.938l.866-.5.867-.498c-.52-.903-1.266-1.731-2.206-2.493l-.63.777zm1.969 2.215l-.866.499c.33.574.534 1.39.534 2.512h2c0-1.345-.241-2.538-.801-3.51l-.867.499zm.668 3.011h-1c0 .735-.133 1.409-.392 2.03l.923.384.923.385a7.198 7.198 0 00.546-2.799h-1zm-.469 2.414l-.926-.376a2.879 2.879 0 01-1.134 1.357l.549.836.548.836a4.88 4.88 0 001.89-2.276l-.927-.377zm-1.511 1.817l-.542-.84c-.488.314-1.22.52-2.283.52v2c1.297 0 2.448-.248 3.366-.84l-.541-.84zm5.132.492h-1v1h1v-1zm0-14.32h1v-1h-1v1zm-2.449 0h-1v1h1v-1zm0-3.961v-1h-1v1h1zm9.024 0h1v-1h-1v1zm0 3.96v1h1v-1h-1zm-2.45 0v-1h-1v1h1zm0 14.321v1h1v-1h-1zm-4.125 0h1V27.68h-2V42h1zm0-14.32v-1h-2.449v2h2.449v-1zm-2.449 0h1v-3.961h-2v3.96h1zm0-3.961v1h9.024v-2h-9.024v1zm9.024 0h-1v3.96h2v-3.96h-1zm0 3.96v-1h-2.45v2h2.45v-1zm-2.45 0h-1V42h2V27.68h-1zm0 14.321v-1h-4.125v2h4.125v-1z" fill="#000" mask="url(#b)"/></g><path fill="#fff" d="M343 26H373V29H343zM343 34H373V37H343zM343 42H373V45H343z"/><circle cx="37" cy="35" r="28" fill="#FFE600"/><path fill-rule="evenodd" clip-rule="evenodd" d="M15.964 48.559c-.37-.457-1.075-1.445-.949-1.74.158-.37.474-.687.632-.634.159.053.37.158.527.106.159-.053.475-.37.686-.422.21-.053.316-.053 1.16 0 .842.052 1.159-.897 1.422-1.055.264-.158 5.007-3.64 5.112-3.587.106.053 4.533-3.429 4.533-3.587 0-.158-.58-.422-.37-.791.212-.37.686-.58.633-.686-.052-.105-.105-.37-.21-.633-.085-.21-.282-.475-.37-.58-.035-.106-.2-.243-.58.053-.474.369-.684-.739-.42-.686.263.053.474-.528 1.159-.739.685-.21.738.422.632.528-.105.105-.158.105-.316.264-.127.126-.053.263 0 .316l.474.791c.053.159.274.401.738.106.464-.295.896-.65 1.054-.791.088-.106.18-.422-.158-.844-.337-.422-.351-.458-.316-.422l-.106-.211c-.052-.018-.179-.032-.263.053-.084.084-.281.105-.37.105-.175-.07-.473-.295-.263-.633.211-.338.51-.492.633-.528l.316-.105.316-.264c.211-.035.633-.02.633.317s-.211.492-.317.527c-.158.053-.41.222-.158.475.253.253.457.598.527.738.088.211.401.496.95-.052l.842-.844c.07-.053.158-.232-.052-.528-.264-.369-.264-.527-.475-.686-.168-.126-.28-.087-.316-.052-.193.035-.58.02-.58-.317s.211-.492.317-.527l.895-.633c.229-.07.696-.095.738.37a.904.904 0 01-.421.526c-.088 0-.2.085.052.422.317.423.422 1.055 1.107.739.59-.211.597-.334.527-.37-.123-.105-.358-.432-.316-.896.053-.58-.053-.844.422-1.319.253-.506.386-.703.421-.738.194-.07.548-.074.422.475-.127.548-.44.896-.58 1.002-.123.088-.316.38-.105.844.337.38.527.369.58.316l8.8-7.912c.844-1.477 4.586-3.112 2.583-9.811 0-.37.2-1.087 1.002-1.002.474.053 1.317.158 2.635 1.266 1.318 1.107 4.216 3.956 5.165 5.591.949 1.635 1.476 1.846 2.108 3.903.506 1.646.246 2.444.053 2.638-.281.281-1.044.738-1.845.316-.801-.422-1.704-1.055-2.055-1.319-.053-.123-.485-.369-1.792-.369s-2.161.246-2.425.37l-3.636 2.004c-.07 0-.084.105.422.527.505.422 1.51 2.216 1.95 3.06.052.123.231.316.526.105 0-.337-.07-.562-.105-.633-.158-.21-.464-.717-.422-1.055a14.61 14.61 0 01-.421-.95c.035-.21.18-.495.474.054.295.548.72 1.354.896 1.688.158.334.474 1.118.474 1.582 0 .58.053 1.952-.632 2.48-.337.126-.527-.018-.58-.106-.07-.246-.284-.591-.58 0a27.46 27.46 0 01-.58.685c0 .106-.084.39-.42.686-.422.37-.844.95-2.9 2.268.211.422.264.633.264.686-.386.422-1.286 1.266-1.792 1.266-.105 0-.316-.264-.369-.422-.053-.158-.421-.106-.58.158-.126.211-1.247 1.002-1.791 1.372-.211.017-.538.179-.159.685.475.633 1.37 2.48 1.898 3.06.421.369 1.054.896.421 1.318-.632.422-1.054.844-1.633.897-.58.053-.527-.053-.58.528-.053.58-1.581 1.318-1.792 1.318-.21 0-.369-.105-.58.633-.38.422-1.106.844-1.423 1.003-.158.017-.537-.053-.79-.475-.316-.528-1.687-3.165-1.845-3.218-.158-.053-.263 0-.527.264s-3.32 2.32-3.795 2.743c-.421.295-1.089.51-1.37.58-.299.193-.96.643-1.212.897-.316.158-3.11 2.32-3.637 2.532-.527.21-.948.422-1.686.369-.738-.053-1.792-.106-2.582-1.213-.791-1.108-.791-1.847-.844-2.532-.053-.686 0-2.901 1.054-3.85.158-.37-.421-.37-.896.316-.474.685-.843 1.371-1.106 1.371-.264 0-.37-.21-.317.422-.168.506-.597.598-.79.58-.176-.108-.559-.365-.685-.527zm12.121-1.952l2.372-1.846c.042-.084-.228-.14-.369-.158-.316-.246-1.033-.94-1.37-1.741.126-.844.474-.387.632-.053.194.475.801 1.393 1.687 1.266.8-.464.685-1.178.527-1.477-.193-.246-.58-.801-.58-1.055 0-.253-.14-.738-.21-.95-.036-.07-.19-.347-.528-.896-.253-.633-.527-.58-.632-.475-.966.95-3.247 3.08-4.638 4.01-1.392.928-3.285 2.953-4.058 3.85-.457.914-1.15 3.08-.264 4.43 1.107 1.689 2.74.634 3.11.528.295-.084 2.336-1.653 3.32-2.426.105-.07.295-.243.21-.37-.632-1.308.264-2.303.791-2.637zm6.588-5.275l-.369.37-.948-1.425c-.194-.228-.685-.96-1.107-2.057-.422-1.097.07-.703.369-.369.193.44.748 1.53 1.423 2.374.675.844.703 1.09.632 1.107zm-.105-5.433l.527.792c.21.351.632 1.065.632 1.107 0 .053.58 1.002.949 1.477.295.38.228.545.158.58-.053.106-.2.275-.369.106-.168-.169-1.546-2.602-2.213-3.798l.316-.264zm4.532 2.057l1.529-1.213c.07-.017.158-.063-.053-.105-.21-.042-.65-.334-.843-.475-.176-.14-.474-.601-.264-1.319.264-.896 1.002-.896 1.37-.896.37-.106 1.266.422 1.318 1.107.042.549.229.545.316.475.949-.668 2.9-2.047 3.11-2.215.21-.17.088-.422 0-.528-.474-.703-1.507-2.257-1.845-2.848-.21-.59-.685-.317-.896-.106-1.686 1.178-5.217 3.63-5.85 4.01-.632.379-.544.685-.421.79.456.668 1.444 2.205 1.739 3.007.295.802.65.545.79.316zm2.636-3.006c-.17-.549-.703-.616-.95-.58-.07-.018-.284-.021-.579.105-.422.253-.386.844-.316 1.108 0 .035.095.18.474.475.38.295.79.123.949 0 .21-.141.59-.56.422-1.108zm6.324-3.218l-.633-1.002c-.337-.76-1.3-1.934-1.739-2.426-.123-.053-.506-.106-1.054.105s-.544.756-.474 1.002l1.95 3.007c.053.105.221.37.474.58.253-.042.492.018.58.053.07.07.316.19.738.105.506-.422.316-1.125.158-1.424zm-10.33 10.18l-.58-.685.37-.317.526.792-.316.21zm1.634 2.005c-.123.088-.369.274-.369.316l-.79-1.107.526-.264.633 1.055zm.053 1.16l.368-.316.738 1.213.106.317-.264.21-.948-1.424zm-.896 3.06c-.14.105-.432.316-.475.316l-.896-1.53.475-.369.896 1.583zm-1.37-2.48l-.37.423-.685-.897.527-.264.527.739z" fill="#000"/><defs><filter id="a" x="72.757" y="15.175" width="161.166" height="41.212" filterUnits="userSpaceOnUse" color-interpolation-filters="sRGB"><feFlood flood-opacity="0" result="BackgroundImageFix"/><feColorMatrix in="SourceAlpha" values="0 0 0 0 0 0 0 0 0 0 0 0 0 0 0 0 0 0 127 0" result="hardAlpha"/><feOffset dy="4"/><feGaussianBlur stdDeviation="4.6"/><feComposite in2="hardAlpha" operator="out"/><feColorMatrix values="0 0 0 0 0 0 0 0 0 0 0 0 0 0 0 0 0 0 1 0"/><feBlend in2="BackgroundImageFix" result="effect1_dropShadow_23_116"/><feBlend in="SourceGraphic" in2="effect1_dropShadow_23_116" result="shape"/></filter></defs></svg>