<svg width="128" height="128" fill="none" xmlns="http://www.w3.org/2000/svg"><circle cx="64" cy="64" r="64" fill="#FFE600"/><path fill-rule="evenodd" clip-rule="evenodd" d="M16.168 96.94c-.83-1.028-2.419-3.25-2.134-3.913.355-.83 1.067-1.542 1.423-1.423.355.118.83.356 1.185.237.356-.119 1.068-.83 1.542-.949.474-.118.712-.118 2.609 0 1.897.119 2.609-2.016 3.202-2.371.592-.356 11.265-8.183 11.502-8.064.237.119 10.198-7.708 10.198-8.064 0-.355-1.304-.948-.83-1.778.474-.83 1.542-1.305 1.423-1.542-.118-.237-.237-.83-.474-1.423-.19-.474-.633-1.067-.83-1.304-.08-.237-.45-.546-1.305.118-1.067.83-1.541-1.66-.948-1.541.593.118 1.067-1.186 2.608-1.66 1.542-.475 1.66.948 1.423 1.185-.237.238-.355.238-.711.593-.285.285-.119.593 0 .712l1.067 1.778c.119.356.617.902 1.66.238a21.037 21.037 0 002.372-1.78c.198-.236.403-.948-.356-1.896-.759-.95-.79-1.028-.711-.95l-.237-.473c-.119-.04-.404-.072-.593.118-.19.19-.633.237-.83.237-.396-.158-1.068-.664-.593-1.423.474-.759 1.146-1.106 1.423-1.185l.711-.238.712-.593c.474-.079 1.423-.047 1.423.712s-.475 1.107-.712 1.186c-.356.118-.925.498-.356 1.067.57.57 1.028 1.344 1.186 1.66.198.475.901 1.115 2.135-.118l1.897-1.898c.158-.118.356-.522-.119-1.185-.593-.83-.593-1.186-1.067-1.542-.38-.285-.632-.198-.711-.119-.435.08-1.305.048-1.305-.711 0-.76.475-1.107.712-1.186l2.016-1.423c.514-.158 1.565-.214 1.66.83a2.033 2.033 0 01-.949 1.186c-.197 0-.45.19.119.948.711.95.948 2.372 2.49 1.66 1.328-.474 1.344-.75 1.186-.83-.277-.236-.807-.972-.712-2.015.119-1.305-.118-1.898.949-2.965.57-1.138.87-1.58.949-1.66.434-.158 1.233-.166.948 1.067-.284 1.233-.988 2.016-1.304 2.253-.277.198-.712.854-.237 1.898.759.853 1.185.83 1.304.711l19.803-17.787c1.898-3.32 10.317-6.997 5.81-22.057 0-.83.452-2.442 2.254-2.253 1.067.119 2.965.356 5.93 2.846 2.964 2.49 9.486 8.894 11.62 12.57 2.135 3.676 3.32 4.15 4.743 8.775 1.139 3.7.554 5.494.119 5.93-.632.632-2.348 1.66-4.15.71-1.803-.948-3.834-2.37-4.625-2.964-.119-.276-1.091-.83-4.032-.83-2.94 0-4.862.553-5.455.83l-8.182 4.506c-.158 0-.19.238.949 1.186 1.138.949 3.4 4.98 4.387 6.878.119.277.522.712 1.186.237 0-.759-.158-1.265-.237-1.423-.356-.474-1.044-1.613-.949-2.371-.38-.76-.79-1.74-.948-2.135.079-.474.403-1.115 1.067.119.664 1.233 1.62 3.043 2.016 3.794.356.751 1.067 2.514 1.067 3.558 0 1.304.119 4.387-1.423 5.573-.759.285-1.186-.04-1.304-.237-.158-.553-.64-1.328-1.305 0-.948 1.138-1.265 1.502-1.304 1.542 0 .237-.19.877-.949 1.541-.948.83-1.897 2.134-6.522 5.1.475.948.593 1.422.593 1.54-.87.95-2.893 2.847-4.032 2.847-.237 0-.711-.593-.83-.949-.118-.356-.948-.237-1.304.356-.285.474-2.807 2.253-4.032 3.083-.474.04-1.21.403-.356 1.541 1.067 1.423 3.083 5.574 4.27 6.878.948.83 2.37 2.016.948 2.965-1.423.948-2.372 1.897-3.676 2.016-1.305.118-1.186-.119-1.305 1.186-.118 1.304-3.557 2.964-4.031 2.964-.475 0-.83-.237-1.305 1.423-.853.949-2.49 1.897-3.201 2.253-.356.04-1.21-.118-1.78-1.067-.71-1.186-3.794-7.115-4.15-7.234-.355-.118-.592 0-1.185.593-.593.593-7.471 5.218-8.538 6.166-.949.665-2.451 1.147-3.084 1.305-.672.435-2.158 1.447-2.727 2.016-.711.356-6.996 5.217-8.182 5.692-1.186.474-2.135.948-3.795.83-1.66-.119-4.032-.237-5.81-2.728-1.779-2.49-1.779-4.15-1.898-5.691-.118-1.542 0-6.522 2.372-8.657.356-.83-.949-.83-2.016.712-1.067 1.541-1.897 3.083-2.49 3.083-.593 0-.83-.475-.712.948-.379 1.139-1.343 1.344-1.778 1.305-.396-.244-1.257-.823-1.542-1.186zm27.274-4.388l5.336-4.15c.095-.19-.514-.316-.83-.356-.711-.553-2.324-2.11-3.083-3.913.285-1.897 1.067-.87 1.423-.119.435 1.068 1.803 3.131 3.795 2.846 1.802-1.043 1.541-2.648 1.186-3.32-.435-.553-1.305-1.802-1.305-2.372 0-.569-.316-1.66-.474-2.134-.08-.158-.427-.783-1.186-2.016-.57-1.423-1.186-1.304-1.423-1.067-2.174 2.134-7.305 6.925-10.435 9.012-3.13 2.087-7.392 6.64-9.131 8.657-1.028 2.055-2.585 6.925-.593 9.961 2.49 3.794 6.166 1.423 6.996 1.185.664-.189 5.257-3.715 7.471-5.455.237-.158.664-.545.474-.83-1.423-2.94.593-5.178 1.78-5.929zm14.823-11.858l-.83.83-2.135-3.201c-.434-.514-1.541-2.159-2.49-4.625-.949-2.467.158-1.581.83-.83.435.988 1.684 3.439 3.202 5.336 1.518 1.897 1.581 2.45 1.423 2.49zm-.237-12.214l1.186 1.779c.474.79 1.423 2.395 1.423 2.49 0 .119 1.304 2.253 2.134 3.32.664.854.514 1.226.356 1.305-.119.237-.45.616-.83.237-.38-.38-3.479-5.85-4.98-8.538l.71-.593zm10.198 4.625l3.439-2.728c.158-.04.355-.142-.119-.237s-1.462-.75-1.897-1.067c-.395-.316-1.067-1.352-.593-2.964.593-2.016 2.253-2.016 3.083-2.016.83-.238 2.846.948 2.965 2.49.094 1.233.514 1.225.711 1.067 2.135-1.502 6.522-4.6 6.996-4.98.475-.38.198-.95 0-1.186-1.067-1.581-3.391-5.076-4.15-6.404-.474-1.328-1.541-.711-2.016-.237-3.794 2.648-11.74 8.159-13.162 9.012-1.423.854-1.226 1.542-.95 1.78 1.029 1.501 3.25 4.956 3.914 6.758.664 1.803 1.463 1.226 1.779.712zm5.929-6.76c-.38-1.233-1.581-1.383-2.135-1.304-.158-.04-.64-.047-1.304.237-.949.57-.87 1.898-.711 2.49 0 .08.213.404 1.067 1.068s1.778.277 2.134 0c.475-.316 1.328-1.257.949-2.49zm14.23-7.233l-1.423-2.253c-.76-1.708-2.925-4.348-3.913-5.455-.277-.118-1.139-.237-2.372.237-1.233.475-1.225 1.7-1.067 2.254l4.387 6.759a4.6 4.6 0 001.067 1.304c.57-.095 1.107.04 1.305.119.158.158.711.427 1.66.237 1.139-.949.712-2.53.356-3.202zM65.143 82l-1.305-1.542.83-.711 1.186 1.778-.711.475zm3.676 4.506c-.277.197-.83.616-.83.711l-1.78-2.49 1.187-.593 1.423 2.372zm.118 2.609l.83-.712 1.66 2.727.238.712-.593.474-2.135-3.201zm-2.016 6.877c-.316.237-.972.712-1.067.712l-2.016-3.44 1.068-.83 2.015 3.558zm-3.083-5.573l-.83.948-1.541-2.015 1.186-.593 1.185 1.66z" fill="#000"/></svg>