<svg width="56" height="56" fill="none" xmlns="http://www.w3.org/2000/svg"><circle cx="28" cy="28" r="28" fill="#FFE600"/><path fill-rule="evenodd" clip-rule="evenodd" d="M6.964 41.559c-.37-.457-1.076-1.445-.949-1.74.158-.37.474-.687.632-.634.159.053.37.158.527.106.159-.053.475-.37.686-.422.21-.053.316-.053 1.16 0 .842.052 1.159-.897 1.422-1.055.264-.158 5.007-3.64 5.112-3.587.106.053 4.533-3.429 4.533-3.587 0-.158-.58-.422-.37-.791.212-.37.686-.58.633-.686-.052-.105-.105-.37-.21-.633-.085-.21-.282-.475-.37-.58-.035-.106-.2-.243-.58.053-.474.369-.684-.739-.42-.686.263.053.474-.528 1.159-.739.685-.21.738.422.632.528-.105.105-.158.105-.316.264-.127.126-.053.263 0 .316l.474.791c.053.159.274.401.738.106.464-.295.896-.65 1.054-.791.088-.106.18-.422-.158-.844-.337-.422-.351-.457-.316-.422l-.106-.211c-.052-.018-.179-.032-.263.052-.084.085-.281.106-.37.106-.175-.07-.473-.295-.263-.633.211-.338.51-.492.633-.527l.316-.106.316-.264c.211-.035.633-.02.633.317s-.211.492-.317.527c-.158.053-.41.222-.158.475.253.253.457.598.527.738.088.211.401.496.95-.052l.842-.844c.07-.053.158-.232-.052-.528-.264-.369-.264-.527-.475-.686-.168-.126-.28-.087-.316-.052-.193.035-.58.02-.58-.317s.211-.492.317-.527l.896-.633c.228-.07.695-.095.737.37a.904.904 0 01-.421.526c-.088 0-.2.085.052.422.317.423.422 1.056 1.107.739.59-.211.598-.334.527-.37-.123-.105-.358-.432-.316-.896.053-.58-.053-.844.422-1.319.253-.506.386-.703.421-.738.194-.07.548-.074.422.475-.127.548-.44.896-.58 1.002-.123.088-.316.38-.105.844.337.38.527.369.58.316l8.8-7.912c.844-1.477 4.586-3.112 2.583-9.81 0-.37.2-1.088 1.002-1.003.474.053 1.317.158 2.635 1.266 1.318 1.107 4.216 3.956 5.165 5.591.949 1.635 1.476 1.846 2.108 3.903.506 1.646.246 2.444.053 2.638-.281.281-1.044.738-1.845.316-.801-.422-1.704-1.055-2.055-1.319-.053-.123-.485-.369-1.792-.369s-2.161.246-2.425.37l-3.636 2.004c-.07 0-.084.105.422.527.505.422 1.51 2.216 1.95 3.06.052.123.231.316.526.105 0-.337-.07-.562-.105-.633-.158-.21-.464-.717-.422-1.055a14.61 14.61 0 01-.421-.95c.035-.21.18-.495.474.054.295.548.72 1.354.896 1.688.158.334.474 1.118.474 1.582 0 .58.053 1.952-.632 2.48-.337.126-.527-.018-.58-.106-.07-.246-.284-.591-.58 0a27.46 27.46 0 01-.58.685c0 .106-.084.39-.42.686-.422.37-.844.95-2.9 2.268.211.422.264.633.264.686-.386.422-1.286 1.266-1.792 1.266-.105 0-.316-.264-.369-.422-.053-.158-.421-.106-.58.158-.126.211-1.247 1.002-1.791 1.372-.211.017-.538.179-.159.685.475.633 1.37 2.48 1.898 3.06.421.369 1.054.896.421 1.318-.632.422-1.054.844-1.633.897-.58.053-.527-.053-.58.528-.053.58-1.581 1.318-1.792 1.318-.21 0-.369-.105-.58.633-.38.422-1.107.844-1.423 1.003-.158.017-.537-.053-.79-.475-.317-.528-1.687-3.165-1.845-3.218-.158-.053-.263 0-.527.264-.263.264-3.32 2.32-3.795 2.743-.421.295-1.089.51-1.37.58-.299.193-.96.643-1.212.897-.316.158-3.11 2.32-3.637 2.532-.527.21-.948.422-1.686.369-.738-.053-1.792-.106-2.583-1.213-.79-1.108-.79-1.847-.843-2.532-.053-.686 0-2.901 1.054-3.85.158-.37-.421-.37-.896.316-.474.685-.843 1.371-1.106 1.371-.264 0-.37-.21-.317.422-.168.506-.597.598-.79.58-.176-.108-.559-.365-.685-.527zm12.121-1.952l2.372-1.846c.042-.084-.228-.14-.369-.158-.316-.246-1.033-.94-1.37-1.741.126-.844.474-.387.632-.053.194.475.801 1.393 1.687 1.266.8-.464.685-1.178.527-1.477-.193-.246-.58-.801-.58-1.055 0-.253-.14-.738-.21-.95-.036-.07-.19-.347-.528-.896-.253-.633-.527-.58-.632-.475-.966.95-3.247 3.08-4.638 4.01-1.392.928-3.285 2.953-4.058 3.85-.457.914-1.15 3.08-.264 4.43 1.107 1.689 2.74.634 3.11.528.295-.084 2.336-1.653 3.32-2.426.105-.07.295-.243.21-.37-.632-1.308.264-2.303.791-2.637zm6.588-5.275l-.369.37-.948-1.425c-.194-.228-.685-.96-1.107-2.057-.422-1.097.07-.703.369-.369.193.44.748 1.53 1.423 2.374.674.844.703 1.09.632 1.107zm-.105-5.433l.527.792c.21.351.632 1.065.632 1.107 0 .053.58 1.003.949 1.477.295.38.228.545.158.58-.053.106-.2.275-.369.106-.168-.169-1.546-2.602-2.213-3.798l.316-.264zm4.532 2.057l1.529-1.213c.07-.017.158-.063-.053-.105-.21-.042-.65-.334-.843-.475-.176-.14-.474-.601-.264-1.319.264-.896 1.002-.896 1.37-.896.37-.106 1.266.422 1.318 1.107.042.549.229.545.316.475.949-.668 2.9-2.047 3.11-2.215.21-.17.088-.422 0-.528-.474-.703-1.507-2.257-1.845-2.848-.21-.59-.685-.317-.896-.106-1.686 1.178-5.217 3.63-5.85 4.01-.632.379-.544.685-.421.79.456.669 1.444 2.205 1.739 3.007.295.802.65.545.79.316zm2.636-3.006c-.17-.549-.703-.616-.95-.58-.07-.018-.284-.021-.579.105-.422.253-.386.844-.316 1.108 0 .035.095.18.474.475.38.295.79.123.949 0 .21-.141.59-.56.422-1.108zm6.324-3.218l-.633-1.002c-.337-.76-1.3-1.934-1.739-2.426-.123-.053-.506-.106-1.054.105s-.544.756-.474 1.002l1.95 3.007c.053.105.221.37.474.58.253-.042.492.018.58.053.07.07.316.19.738.106.506-.422.316-1.126.158-1.425zm-10.33 10.18l-.58-.685.37-.317.526.792-.316.21zm1.634 2.005c-.123.088-.369.274-.369.316l-.79-1.107.526-.264.633 1.055zm.053 1.16l.368-.316.738 1.213.106.317-.264.21-.948-1.424zm-.896 3.06c-.14.105-.433.316-.475.316l-.896-1.53.475-.369.896 1.583zm-1.37-2.48l-.37.423-.685-.897.527-.264.527.739z" fill="#000"/></svg>