<svg width="233" height="197" fill="none" xmlns="http://www.w3.org/2000/svg"><path d="M41.438 63V8h22v10.719H52.5v8.75h10.375v10.593H52.5V63H41.437zM67 63V14.25h11v39.375h11.313V63H67zm29.969 0V44.906L88.188 14.25h10.906l3.062 18.656 3.063-18.656h10.875l-8.75 30.656V63H96.969zm21.406 0V14.25H129V63h-10.625zm15 0V14.25h11.313l5.687 26.438V14.25h10V63h-10.75L143.5 36.594V63h-10.125zm43.219.5c-7.854 0-11.782-5.625-11.782-16.875V29.344c0-10.271 4.5-15.407 13.5-15.407 3.709 0 6.553.678 8.532 2.032 1.979 1.333 3.344 3.25 4.094 5.75.75 2.5 1.124 5.51 1.124 9.031h-10.75v-2.5c0-1.188-.166-2.177-.5-2.969-.312-.812-.979-1.218-2-1.218-1.27 0-2.114.427-2.531 1.28-.396.855-.593 1.792-.593 2.813v20.219c0 1.48.187 2.688.562 3.625.396.917 1.156 1.375 2.281 1.375 1.167 0 1.938-.458 2.313-1.375.396-.938.594-2.167.594-3.688v-3.937H178.5v-9.5h13.438V63h-4.407l-1.875-4.625c-1.916 3.417-4.937 5.125-9.062 5.125zM19.438 134V89.562h-6.532V79H36.97v10.563h-6.532V134h-11zm19.093 0l5.313-48.75H62.5L67.719 134H57.313l-.72-8.875h-6.75L49.22 134H38.53zm14.25-40l-2.031 22.344h4.813L53.28 94h-.5zm18.313 40V85.25H85c3.042 0 5.5.667 7.375 2 1.896 1.333 3.281 3.198 4.156 5.594.875 2.375 1.313 5.166 1.313 8.375 0 3.083-.375 5.802-1.125 8.156-.75 2.354-2.01 4.198-3.781 5.531-1.75 1.334-4.146 2-7.188 2h-3.844V134H71.094zm10.812-26.969h.625c2.042 0 3.292-.541 3.75-1.625.459-1.083.688-2.541.688-4.375 0-1.687-.23-3.062-.688-4.125-.437-1.083-1.49-1.625-3.156-1.625h-1.219v11.75zM116.344 134V79h22v10.719h-10.938v8.75h10.375v10.593h-10.375V134h-11.062zm25.562 0V85.25h22v10.625h-10.812v8.063h10.375v10.343h-10.375v9h11.531V134h-22.719zm39.438.5c-5.021 0-8.646-1.25-10.875-3.75-2.209-2.5-3.313-6.479-3.313-11.938v-1.781h10.875v3.281c0 1.271.188 2.271.563 3 .396.709 1.073 1.063 2.031 1.063 1 0 1.687-.26 2.063-.781.395-.542.593-1.323.593-2.344 0-1.354-.458-2.5-1.375-3.438-.896-.937-2.385-2.208-4.468-3.812l-4.75-3.688c-2.021-1.562-3.448-3.291-4.282-5.187-.833-1.896-1.25-4.198-1.25-6.906 0-4.23 1.084-7.531 3.25-9.906 2.188-2.376 5.344-3.563 9.469-3.563 5.042 0 8.615 1.313 10.719 3.938 2.125 2.624 3.187 6.479 3.187 11.562h-11.156v-2.688c0-1.791-.833-2.687-2.5-2.687-.833 0-1.448.25-1.844.75-.396.48-.593 1.104-.593 1.875 0 .77.177 1.5.531 2.188.375.666 1.229 1.541 2.562 2.624l6.344 5.157c2.313 1.875 4.063 3.843 5.25 5.906 1.187 2.063 1.781 4.74 1.781 8.031 0 2.292-.416 4.438-1.25 6.438-.812 2-2.156 3.614-4.031 4.844-1.875 1.208-4.385 1.812-7.531 1.812zm21.218-.5V95.812h-6.531V85.25h24.063v10.563h-6.532V134h-11zM85.844 187v-1.312c0-1.365.208-2.589.625-3.672a13.7 13.7 0 011.64-3.032 48.329 48.329 0 012.11-2.75 45.593 45.593 0 002.047-2.687 13.352 13.352 0 001.593-3c.417-1.083.625-2.297.625-3.641 0-.646-.099-1.198-.296-1.656-.188-.469-.584-.703-1.188-.703-.917 0-1.375.818-1.375 2.453v3.359h-5.781c-.01-.239-.026-.51-.047-.812-.01-.302-.016-.594-.016-.875 0-1.979.209-3.656.625-5.031.417-1.386 1.151-2.438 2.203-3.157 1.063-.729 2.553-1.093 4.47-1.093 2.28 0 4.051.64 5.312 1.921 1.27 1.282 1.906 3.11 1.906 5.485 0 1.614-.208 3.031-.625 4.25a13.695 13.695 0 01-1.656 3.312 42.96 42.96 0 01-2.266 2.969 57.077 57.077 0 00-1.703 2.141c-.542.729-1.021 1.51-1.438 2.343h7.5V187H85.844zm22.75.25c-2.323 0-4.12-.651-5.391-1.953-1.26-1.302-1.891-3.177-1.891-5.625v-12.406c0-2.584.599-4.563 1.797-5.938 1.209-1.385 3.037-2.078 5.485-2.078 2.458 0 4.286.693 5.484 2.078 1.198 1.375 1.797 3.354 1.797 5.938v12.406c0 2.448-.63 4.323-1.891 5.625-1.26 1.302-3.057 1.953-5.39 1.953zm0-5.062c.427 0 .76-.193 1-.579.239-.385.359-.817.359-1.297v-13.578c0-.645-.073-1.208-.219-1.687-.135-.49-.515-.735-1.14-.735-.625 0-1.011.245-1.156.735-.136.479-.204 1.042-.204 1.687v13.578c0 .48.12.912.36 1.297.25.386.583.579 1 .579zm8.875 4.812v-1.312c0-1.365.208-2.589.625-3.672a13.727 13.727 0 011.64-3.032 48.34 48.34 0 012.11-2.75 45.991 45.991 0 002.047-2.687 13.35 13.35 0 001.593-3c.417-1.083.625-2.297.625-3.641 0-.646-.099-1.198-.297-1.656-.187-.469-.583-.703-1.187-.703-.917 0-1.375.818-1.375 2.453v3.359h-5.781c-.011-.239-.026-.51-.047-.812a24.046 24.046 0 01-.016-.875c0-1.979.209-3.656.625-5.031.417-1.386 1.151-2.438 2.203-3.157 1.063-.729 2.552-1.093 4.469-1.093 2.281 0 4.052.64 5.313 1.921 1.27 1.282 1.906 3.11 1.906 5.485 0 1.614-.208 3.031-.625 4.25a13.724 13.724 0 01-1.656 3.312c-.688.99-1.443 1.98-2.266 2.969a57.28 57.28 0 00-1.703 2.141 15.683 15.683 0 00-1.438 2.343h7.5V187h-14.265zm23.109.25c-1.906 0-3.401-.323-4.484-.969-1.073-.656-1.834-1.64-2.282-2.953-.437-1.312-.656-2.948-.656-4.906v-7.438c0-1.906.078-3.588.235-5.046.166-1.459.505-2.683 1.015-3.672a5.07 5.07 0 012.282-2.25c1.01-.511 2.359-.766 4.046-.766 1.157 0 2.235.203 3.235.609 1 .396 1.807.995 2.422 1.797.614.792.921 1.787.921 2.985v2.968h-5.296v-.562c0-.458-.026-.917-.078-1.375-.042-.458-.157-.839-.344-1.141-.188-.302-.505-.453-.953-.453-.615 0-1.042.172-1.282.516-.239.333-.359.817-.359 1.453v5.515c.26-.489.651-.88 1.172-1.171.521-.302 1.156-.453 1.906-.453 1.521 0 2.688.307 3.5.921.823.605 1.391 1.511 1.703 2.719.313 1.208.469 2.719.469 4.531 0 1.834-.224 3.438-.672 4.813-.448 1.364-1.198 2.427-2.25 3.187-1.042.761-2.458 1.141-4.25 1.141zm-.203-5.062c.646 0 1.031-.271 1.156-.813.125-.552.188-1.255.188-2.109v-2.219c0-1.5-.422-2.25-1.266-2.25-.969 0-1.453.651-1.453 1.953v3.406c0 1.354.458 2.032 1.375 2.032z" fill="#FFE600"/></svg>