<svg width="55" height="57" fill="none" xmlns="http://www.w3.org/2000/svg"><path fill-rule="evenodd" clip-rule="evenodd" d="M10.845 56.95c4.002-.65 12.007-3.901 12.007-11.703V12.483l26.338-5.07.388 23.013c-1.033-.78-3.796-2.262-6.585-1.95-3.486.39-9.683 5.07-9.683 10.141s1.162 13.263 8.908 12.873C49.965 51.099 55 47.198 55 42.907V0L15.88 7.411v28.085c-.904-.65-3.408-1.872-6.197-1.56-3.486.39-9.683 5.46-9.683 7.41v8.192c1.162 2.73 4.958 8.036 10.845 7.411zm5.035-11.313c0 4.681-3.357 5.852-5.035 5.852-1.807 0-5.422-1.093-5.422-5.461 0-4.37 3.615-5.461 5.422-5.461 1.678-.26 5.035.39 5.035 5.07zm33.698-5.07c0 3.432-3.874 5.07-5.81 5.46-2.712 0-5.036-2.34-5.036-5.85s3.099-5.461 5.423-5.461 5.422 1.56 5.422 5.85z" fill="#FFE600"/></svg>