<svg width="38" height="52" fill="none" xmlns="http://www.w3.org/2000/svg"><path fill-rule="evenodd" clip-rule="evenodd" d="M10.374 42.55v4.296c0 1.718.945 5.154 4.724 5.154h7.73c1.575-.43 4.725-2.148 4.725-5.584v-5.155c.573-2.434 2.49-7.817 5.583-9.879 2.749-2.75 4.009-6.586 4.295-8.161.43-1.575 1.03-5.584 0-9.02-1.289-4.296-4.295-8.592-5.154-9.021-.859-.43-5.583-5.584-12.884-5.155-7.301.43-9.449 2.148-13.314 5.155S.925 12.912.496 14.63c-.43 1.718-.859 7.302 0 9.45.859 2.147 3.006 6.443 4.724 7.732 1.718 1.288 5.136 6.013 5.154 10.738zm13.743 2.577H13.81c-.344 3.437 1.288 3.723 2.147 3.437h6.013c2.405 0 2.433-2.291 2.147-3.437zM17.245 33.53v8.161H13.38c-.43-3.007-1.804-9.278-3.865-10.309-2.062-1.03-4.295-4.725-5.154-6.443-.859-1.861-1.975-6.959.43-12.457 3.006-6.873 9.448-9.45 14.602-9.45s6.872 2.148 11.166 5.155c3.436 2.405 4.009 9.02 3.866 12.027.143 1.575-.43 5.584-3.866 9.02-3.78 2.75-5.87 9.45-6.442 12.457h-3.436V33.53l6.872-10.31 3.006-3.006c1.031-3.78-1.288-3.007-2.577-2.148l-2.147 1.718c-.43-.286-1.374-1.03-1.718-1.718-1.374-1.718-2.863-.716-3.436 0l-1.718 1.718-2.147-2.147c-1.03-1.031-2.147-.43-2.577 0l-2.147 2.147c-.43-.43-1.546-1.46-2.577-2.147-2.749-.688-2.863 1.145-2.577 2.147l3.865 3.866 6.442 9.88zm6.443-10.739l-4.725 6.873-4.724-6.873c.143-.286.601-.945 1.289-1.288 2.748 4.467 5.726 1.86 6.871 0l1.289 1.288z" fill="#FFE600"/></svg>