<svg width="23" height="34" fill="none" xmlns="http://www.w3.org/2000/svg"><path fill-rule="evenodd" clip-rule="evenodd" d="M20.24 18.649l1.495-2.16.805-1.934.23-.682.23-1.023v-2.275l-.115-.91-.23-.91-.345-1.364-.575-1.137-.575-1.137-.69-.91-.69-.682-.69-.682-.69-.455-.805-.569-.92-.568-.92-.455L14.49.455 13.225.114 12.305 0h-1.15L10.12.114 8.855.34l-1.38.341-1.15.455-.92.569-.92.682-1.035.796-.805.91-.805 1.023-.46.796-.345.796-.46 1.023-.23 1.024-.23 1.137L0 10.916l.115 1.365.23 1.706.46 1.478.575 1.25.805 1.365 1.38 2.388 7.705 13.19.23.342.196-.455L20.24 18.65zm-7.705-1.82l-1.035.114h-.805l-.805-.227-.805-.341-.805-.455-.69-.569-.575-.568-.46-.796-.345-.796-.23-.91-.115-.91v-.796l.23-.796.345-.682.345-.796.575-.569.46-.454.46-.455.69-.455.69-.228.69-.227.805-.114h.69l.69.114.69.114.69.34.69.342.575.455.575.568.46.683.345.682.345.682.115.796.115.91-.115.91-.345 1.023-.46.91-.46.682-.69.682-.69.455-.69.341-1.15.341z" fill="#FFE600"/></svg>