<svg width="53" height="56" fill="none" xmlns="http://www.w3.org/2000/svg"><path fill-rule="evenodd" clip-rule="evenodd" d="M15.143 2.787V0h2.776v2.787h17.162V0h2.776v2.787h11.105C50.308 3.125 53 4.51 53 7.348v44.344c-.126 1.31-1.11 4.004-4.038 4.308H4.164C2.818 55.873.101 54.834 0 51.692V6.588c.21-1.267 1.312-3.8 4.038-3.8h11.105zM3.28 48.398V15.584l46.438.126v32.055c.303 3.547-2.65 4.603-4.164 4.688H7.319c-3.23-.203-4.038-2.788-4.038-4.055zm46.438-35.982H3.281c-.404-5.777 2.692-6.63 4.29-6.335h7.572V8.11h2.776V6.08h17.162V8.11h2.776V6.08h6.94c4.039 0 4.964 2.788 4.922 4.181v2.154z" fill="#FFE600"/></svg>