<svg width="53" height="23" fill="none" xmlns="http://www.w3.org/2000/svg"><path fill-rule="evenodd" clip-rule="evenodd" d="M35.784 20.571c.803.915 2.89 2.675 4.817 2.4 1.927-.274 3.785-1.714 4.473-2.4l6.538-.343c.459-.114 1.376-.617 1.376-1.714v-3.428l-.688-2.058.688-1.37c.115-1.487-.55-4.595-4.129-5.144-3.578-.548-9.749-.914-12.387-1.028l-5.16-3.772C30.507 1.143 28.557 0 27.181 0h-7.914c-1.261.229-4.266 1.029-6.193 2.4-2.753 1.029-6.538 2.4-10.322 2.4C1.1 4.8.918 5.943 1.033 6.514V12L0 14.743c0 .343.069 1.165.344 1.714L1.72 19.2c.115.343.689 1.029 2.065 1.029s4.243.228 5.505.342c.803.915 2.822 2.675 4.473 2.4 2.065-.343 4.817-2.057 5.161-2.4h16.86zm-19.268-3.428c0-1.92-1.606-2.4-2.409-2.4-.803-.114-2.408.206-2.408 2.4s1.605 2.514 2.408 2.4c.803 0 2.409-.48 2.409-2.4zm26.494 0c0 1.92-1.606 2.4-2.409 2.4-.803.114-2.408-.206-2.408-2.4 0-2.195 1.605-2.514 2.408-2.4.803 0 2.409.48 2.409 2.4zm6.881-1.372l-.344 1.372h-3.096c-.23-1.943-1.72-5.829-5.85-5.829-4.129 0-5.62 3.886-5.85 5.829H19.958c0-.686-1.377-5.829-5.85-5.829-3.578 0-5.39 3.886-5.85 5.829H4.13l-.688-2.057.344-1.372c.917 0 2.752-.343 2.752-1.714s-1.605-1.486-2.408-1.371V7.886c1.376.274 6.308-1.257 8.602-2.057l4.817-2.058c-.23.458-.895 1.646-1.72 2.743-.826 1.097.573 2.057 1.376 2.4 9.863.229 29.866.686 30.967.686 1.101 0 1.376 1.143 1.376 1.714-.802 0-2.408.343-2.408 1.714 0 1.372 1.376 1.486 2.064 1.372l.688 1.371zM30.967 5.486H20.301l1.376-2.4h4.473c1.652 0 3.9 1.6 4.817 2.4z" fill="#FFE600"/></svg>