<svg width="27" height="34" fill="none" xmlns="http://www.w3.org/2000/svg"><path d="M0 34h3.208v-6.256c.178-1.179 1.283-3.536 4.277-3.536H18.98c1.337.272 4.01 1.36 4.01 3.536v4.624c.09.544.588 1.632 1.871 1.632h.802C26.11 34 27 33.782 27 32.912v-5.168c-.802-2.539-3.475-7.616-7.753-7.616H8.287C5.525 20.581 0 22.576 0 26.928V34z" fill="#00C22A"/><path fill-rule="evenodd" clip-rule="evenodd" d="M13.366 17.68c2.94-.725 8.822-3.536 8.822-8.976 0-6.8-6.683-8.704-8.287-8.704-1.604 0-8.822 1.36-8.822 8.16s4.812 9.52 8.287 9.52zm4.545-8.976c0 3.7-3.03 4.805-4.545 4.896-1.693 0-5.079-.98-5.079-4.896 0-4.896 5.08-5.168 5.614-5.168.535 0 4.01.544 4.01 5.168z" fill="#00C22A"/></svg>