<svg width="41" height="39" fill="none" xmlns="http://www.w3.org/2000/svg"><path fill-rule="evenodd" clip-rule="evenodd" d="M18.9.746c.52-.563 1.873-1.351 3.122 0 1.442 1.159 12.772 10.54 18.257 15.085.36.402.985 1.351.6 1.93-.12.362-.96 1.57-2.042 1.086-.864-.386-1.08-.643-1.08-.724v16.17C37.436 35.864 36.05 39 33.071 39H7.73c-1.521-.443-4.564-2.003-4.564-4.706v-16.17c-.4.402-1.417 1.085-2.282.603-1.08-.604-.96-1.569-.72-2.052.24-.482 1.32-1.448 1.801-1.81.385-.29 11.45-9.533 16.936-14.119zm5.885 34.875h-8.528v-9.775h8.528v9.775zm8.047 0h-4.684c-.04-3.379-.12-10.426-.12-11.585 0-1.158-1.041-1.528-1.562-1.568h-12.01c-1.25 0-1.562 1.126-1.562 1.69V35.62H8.09c-.961 0-1.442-1.046-1.562-1.569V15.348L20.461 3.763l13.932 11.585V33.81c0 1.448-1.04 1.81-1.561 1.81z" fill="#FFE600"/></svg>