<svg width="29" height="29" fill="none" xmlns="http://www.w3.org/2000/svg"><path fill-rule="evenodd" clip-rule="evenodd" d="M14.727 28.923C19.485 28.61 29 25.19 29 14.017 28.624 5.732 21.942 1.673 18.648.68 16.818 0 12.061-.764 7.67 1.62 3.277 4.006.925 8.996.297 11.193c-.366 1.883-.69 6.402.941 9.414 1.632 3.013 4.13 5.23 5.176 5.963 1.673.982 5.678 2.828 8.313 2.353zm8.47-4.864c-2.008 2.51-6.483 3.348-8.47 3.452-4.517.251-8.26-2.197-9.567-3.452-1.554-1.778-4.513-6.465-3.922-10.984.592-4.519 3.384-7.636 4.706-8.63.94-.889 3.89-2.761 8.156-3.138 4.266-.376 8.051 2.25 9.41 3.61 1.409 1.254 4.164 4.926 3.922 9.57-.304 5.806-1.726 6.434-4.235 9.572z" fill="#FFE600"/><path d="M14.1 22.647c.627 0 1.85-.345 1.725-1.726-.125-1.38-1.202-1.83-1.725-1.883-.628.052-1.882.502-1.882 1.883 0 1.38 1.254 1.726 1.882 1.726zM13.943 17.626c.47-.105 1.443-.534 1.568-1.412.126-.879 1.307-1.517 1.883-1.726.836-.576 2.509-2.197 2.509-4.08s-1.36-2.981-2.039-3.295c-.993-.47-3.42-1.287-5.176-.785-1.757.502-2.719 1.57-2.98 2.04-.523.628-1.349 2.071-.47 2.825.878.753 1.83.418 2.195.157.314-.837 1.287-2.542 2.667-2.668 1.38-.126 2.143.89 2.352 1.412.105.419.063 1.475-.94 2.354a24.337 24.337 0 01-2.197 1.726c-.731.889-1.63 2.824.628 3.452z" fill="#FFE600"/></svg>