<svg width="50" height="62" fill="none" xmlns="http://www.w3.org/2000/svg"><path d="M0 62h5.94V50.592c.33-2.15 2.377-6.448 7.921-6.448h21.287c2.476.496 7.426 2.48 7.426 6.448v8.432c.165.992 1.09 2.976 3.466 2.976h1.485C48.35 62 50 61.603 50 60.016v-9.424c-1.485-4.63-6.436-13.888-14.356-13.888H15.347C10.23 37.531 0 41.168 0 49.104V62z" fill="#FFE600"/><path fill-rule="evenodd" clip-rule="evenodd" d="M24.753 32.24c5.445-1.323 16.336-6.448 16.336-16.368C41.09 3.472 28.713 0 25.743 0 22.773 0 9.406 2.48 9.406 14.88s8.91 17.36 15.347 17.36zm8.415-16.368c0 6.746-5.61 8.763-8.415 8.928-3.136 0-9.406-1.786-9.406-8.928 0-8.928 9.406-9.424 10.396-9.424.99 0 7.425.992 7.425 9.424z" fill="#FFE600"/></svg>