<svg width="46" height="40" fill="none" xmlns="http://www.w3.org/2000/svg"><path d="M24.387 39c-1.079 1.812-2.247.755-2.697 0l-8.09-8.155L2.811 19.972c-1.349-1.36-2.248-4.53-2.697-6.343-.45-1.812.449-5.436 2.247-8.608C4.16 1.85 8.205.944 10.452.491c2.248-.906 5.844 0 7.642 1.359 1.798 1.36 3.146 3.171 5.394 2.718 1.798-.362 3.746-1.963 4.495-2.718 1.049-.604 3.776-1.812 6.293-1.812C36.433-.325 40.269 2 41.917 3.209c1.199 1.057 3.686 4.168 4.045 8.155.36 3.987-1.947 7.4-3.146 8.608-5.394 5.587-16.631 17.215-18.43 19.027z" fill="#FFE600"/></svg>