<svg width="57" height="57" fill="none" xmlns="http://www.w3.org/2000/svg"><path fill-rule="evenodd" clip-rule="evenodd" d="M3.052 57c1.754-2.19 5.395-7.489 5.921-11.168 5.921 5.256 10.527 8.54 15.132 8.54h9.21c3.729-1.314 11.974-4.992 15.132-9.197C52.395 39.92 57 34.665 57 28.095c0-6.57 0-22.336-6.579-26.934-1.579-2.102-3.29-.876-3.947 0-1.755 2.846-8.027 8.803-19.08 9.854-13.815 1.314-15.131 5.912-17.105 7.883-1.974 1.97-4.605 7.883-4.605 13.138v7.227C4.368 42.548.42 45.833.42 49.773.42 53.716-1.553 57 3.052 57zm48.685-34.16c0-5.782-2.193-11.606-3.29-13.796-.658 0-13.816 5.912-14.474 5.912-.657 0-9.21 0-15.131 4.599-5.921 4.598-3.29 2.628-6.58 8.54-.657.657-3.289 3.285 0 8.54 9.211 0 17.764-8.54 19.08-9.854 1.316 0 7.895-1.97 3.29 5.255-4.606 7.227-18.422 9.198-19.738 10.511 5.921 6.57 13.158 7.227 17.764 5.913 4.605-1.314 8.552-3.942 12.5-7.883 3.947-3.942 6.579-10.511 6.579-17.737z" fill="#00C22A"/></svg>