<svg width="25" height="25" fill="none" xmlns="http://www.w3.org/2000/svg"><path fill-rule="evenodd" clip-rule="evenodd" d="M12.595.042C16.73.232 25 2.976 25 12.425c0 9.45-8.142 12.321-12.214 12.575C8.524 24.365 0 20.96 0 12.425 0 1.756 11.45-.34 12.595.043zm9.924 12.383c-.458-7.62-6.806-9.78-9.924-9.907-3.244.127-9.77 2.287-9.923 9.907-.153 7.621 6.68 9.908 10.114 10.098 3.245-.19 9.733-2.477 9.733-10.098z" fill="#FFE600"/><path d="M13.74 11.282h2.863c.7.318 1.68 1.258 0 2.477h-4.008c-.381 0-1.145-.38-1.145-1.905V7.472c.382-.89 1.374-2.134 2.29 0 .153 2.134.064 3.43 0 3.81z" fill="#FFE600"/></svg>