<svg width="23" height="33" fill="none" xmlns="http://www.w3.org/2000/svg"><path d="M14.496 32.256c-3.04 0-5.584-1.008-7.632-3.024-2.016-2.048-3.344-4.864-3.984-8.448H0v-2.4h2.592l-.096-1.056v-2.304c.032-.384.064-.752.096-1.104H0v-2.4h2.928c.64-3.584 2.016-6.4 4.128-8.448S11.776 0 14.88 0c2.272 0 4.112.592 5.52 1.776 1.408 1.152 2.256 2.624 2.544 4.416-.128.608-.432 1.056-.912 1.344a2.615 2.615 0 01-1.44.432c-.608 0-1.136-.224-1.584-.672-.448-.448-.848-1.296-1.2-2.544l-.72-2.496a4.45 4.45 0 00-.864-.096H15.6c-2.144 0-3.952.8-5.424 2.4-1.472 1.568-2.48 3.888-3.024 6.96h10.8v2.4H6.912c-.032.352-.064.72-.096 1.104v2.304l.096 1.056h11.04v2.4h-10.8c.512 3.008 1.504 5.312 2.976 6.912 1.472 1.6 3.28 2.4 5.424 2.4h.624c.256-.032.528-.064.816-.096l.672-2.4c.352-1.28.784-2.128 1.296-2.544.512-.448 1.072-.672 1.68-.672.544 0 1.008.144 1.392.432.384.256.624.656.72 1.2-.256 1.824-1.136 3.328-2.64 4.512-1.504 1.152-3.376 1.728-5.616 1.728z" fill="#FFE600"/></svg>